<?xml version="1.0" encoding="UTF-8" standalone="no"?>
<svg
   xmlns:dc="http://purl.org/dc/elements/1.1/"
   xmlns:cc="http://creativecommons.org/ns#"
   xmlns:rdf="http://www.w3.org/1999/02/22-rdf-syntax-ns#"
   xmlns:svg="http://www.w3.org/2000/svg"
   xmlns="http://www.w3.org/2000/svg"
   xmlns:sodipodi="http://sodipodi.sourceforge.net/DTD/sodipodi-0.dtd"
   xmlns:inkscape="http://www.inkscape.org/namespaces/inkscape"
   width="1280"
   height="720"
   viewBox="0 0 338.66666 190.50001"
   version="1.1"
   id="svg8"
   inkscape:version="1.0.2 (e86c870879, 2021-01-15)"
   sodipodi:docname="default.svg"
   inkscape:export-filename="/tmp/EndTitles.svg.png"
   inkscape:export-xdpi="96"
   inkscape:export-ydpi="96">
  <defs
     id="defs2" />
  <sodipodi:namedview
     id="base"
     pagecolor="#887e7e"
     bordercolor="#666666"
     borderopacity="1.0"
     inkscape:pageopacity="0"
     inkscape:pageshadow="2"
     inkscape:zoom="0.7"
     inkscape:cx="341.99982"
     inkscape:cy="612.6483"
     inkscape:document-units="mm"
     inkscape:current-layer="layer1"
     showgrid="false"
     inkscape:window-width="1920"
     inkscape:window-height="1009"
     inkscape:window-x="0"
     inkscape:window-y="0"
     inkscape:window-maximized="1"
     units="px"
     inkscape:snap-bbox="true"
     inkscape:snap-page="true"
     inkscape:document-rotation="0" />
  <metadata
     id="metadata5">
    <rdf:RDF>
      <cc:Work
         rdf:about="">
        <dc:format>image/svg+xml</dc:format>
        <dc:type
           rdf:resource="http://purl.org/dc/dcmitype/StillImage" />
        <dc:title />
      </cc:Work>
    </rdf:RDF>
  </metadata>
  <g
     inkscape:label="Layer 1"
     inkscape:groupmode="layer"
     id="layer1"
     transform="translate(0,-106.49997)">
    <rect
       style="opacity:1;fill:#000000;fill-opacity:1;fill-rule:evenodd;stroke:none;stroke-width:0.5;stroke-linecap:butt;stroke-linejoin:miter;stroke-miterlimit:4;stroke-dasharray:none;stroke-dashoffset:0;stroke-opacity:1"
       id="rect927"
       width="338.66666"
       height="190.5"
       x="0"
       y="106.49997" />
    <g
       id="g969"
       transform="matrix(0.81550662,0,0,0.81550662,73.107733,57.934429)"
       style="stroke-width:1.22623">
      <g
         transform="translate(48.002976,-99.271386)"
         id="g943"
         style="stroke-width:1.22623">
        <rect
           style="opacity:1;fill:#fffbfb;fill-opacity:1;fill-rule:evenodd;stroke:none;stroke-width:0.613116;stroke-linecap:butt;stroke-linejoin:miter;stroke-miterlimit:4;stroke-dasharray:none;stroke-dashoffset:0;stroke-opacity:1"
           id="rect929"
           width="62.740887"
           height="23.178677"
           x="205.20819"
           y="361.42957" />
        <g
           id="surface1"
           transform="matrix(0.69566321,0,0,0.69566321,206.1241,362.18349)"
           style="stroke-width:0.466376">
          <path
             id="path879"
             d="m 2.300781,0.375 83.128907,0.148438 c 1.160156,0 2.199218,-0.171875 2.199218,2.332031 L 87.527344,30.410156 H 0.203125 V 2.753906 C 0.203125,1.519531 0.324219,0.375 2.300781,0.375 Z"
             style="fill:#a8b0ab;fill-opacity:1;fill-rule:nonzero;stroke:none;stroke-width:0.466376"
             inkscape:connector-curvature="0" />
          <path
             id="path881"
             d="M 86.351563,0 H 1.648438 C 0.738281,0 0,0.742188 0,1.65625 V 30.625 C 0,30.832031 0.167969,31 0.371094,31 H 87.628906 C 87.832031,31 88,30.832031 88,30.625 V 1.65625 C 88,0.742188 87.261719,0 86.351563,0 Z M 1.648438,0.75 h 84.703125 c 0.5,0 0.902343,0.40625 0.902343,0.90625 0,0 0,11.699219 0,20.132813 H 26.515625 c -2.21875,4.039062 -6.492187,6.78125 -11.398437,6.78125 -4.910157,0 -9.183594,-2.738282 -11.402344,-6.78125 h -2.96875 c 0,-8.433594 0,-20.132813 0,-20.132813 0,-0.5 0.402344,-0.90625 0.902344,-0.90625 z"
             style="fill:#000000;fill-opacity:1;fill-rule:nonzero;stroke:none;stroke-width:0.466376"
             inkscape:connector-curvature="0" />
          <path
             id="path883"
             d="m 54.125,24.171875 c 0.234375,0 0.445313,0.01953 0.636719,0.05859 0.191406,0.04297 0.351562,0.109375 0.488281,0.203125 0.136719,0.09375 0.242188,0.21875 0.316406,0.375 0.07422,0.152344 0.113282,0.34375 0.113282,0.574219 0,0.246093 -0.05469,0.449218 -0.167969,0.613281 -0.109375,0.164062 -0.273438,0.300781 -0.492188,0.40625 0.300782,0.08594 0.523438,0.238281 0.671875,0.453125 0.148438,0.21875 0.222657,0.480469 0.222657,0.785156 0,0.246094 -0.04687,0.460938 -0.144532,0.640625 -0.09375,0.179688 -0.222656,0.328125 -0.382812,0.441406 -0.164063,0.113282 -0.347656,0.199219 -0.554688,0.253907 -0.207031,0.05469 -0.417968,0.08203 -0.636718,0.08203 H 51.835938 V 24.17187 Z m -0.136719,1.976563 c 0.191407,0 0.347657,-0.04687 0.472657,-0.136719 0.121093,-0.09375 0.183593,-0.238281 0.183593,-0.445313 0,-0.113281 -0.01953,-0.207031 -0.0625,-0.277343 -0.03906,-0.07422 -0.09375,-0.132813 -0.164062,-0.171875 -0.06641,-0.04297 -0.144531,-0.07031 -0.234375,-0.08594 -0.08594,-0.01563 -0.179688,-0.02344 -0.273438,-0.02344 H 52.90625 v 1.140625 z m 0.0625,2.074218 c 0.105469,0 0.207032,-0.01172 0.300782,-0.03125 0.09766,-0.01953 0.179687,-0.05469 0.253906,-0.101562 0.07031,-0.05078 0.128906,-0.113281 0.171875,-0.195313 0.04297,-0.08203 0.06641,-0.1875 0.06641,-0.316406 0,-0.25 -0.07031,-0.429687 -0.210937,-0.535156 -0.140625,-0.109375 -0.328125,-0.160156 -0.558594,-0.160156 H 52.90625 v 1.339843 z"
             style="fill:#ffffff;fill-opacity:1;fill-rule:nonzero;stroke:none;stroke-width:0.466376"
             inkscape:connector-curvature="0" />
          <path
             id="path885"
             d="m 56.101563,24.171875 h 1.199218 l 1.136719,1.929688 1.128906,-1.929688 h 1.191407 l -1.800782,3.011719 v 1.875 H 57.886719 V 27.15625 Z"
             style="fill:#ffffff;fill-opacity:1;fill-rule:nonzero;stroke:none;stroke-width:0.466376"
             inkscape:connector-curvature="0" />
          <path
             id="path887"
             d="m 25.121094,14.472656 c 0.0039,5.554688 -4.472656,10.0625 -9.996094,10.066407 -5.519531,0.0039 -10,-4.5 -10.003906,-10.054688 0,-0.0039 0,-0.0078 0,-0.01172 C 5.117188,8.914063 9.59375,4.40625 15.113281,4.402344 c 5.523438,-0.00391 10.003907,4.5 10.007813,10.058594 0,0 0,0.0078 0,0.01172 z"
             style="fill:#ffffff;fill-opacity:1;fill-rule:nonzero;stroke:none;stroke-width:0.466376"
             inkscape:connector-curvature="0" />
          <path
             id="path889"
             d="m 23.25,6.273438 c 2.214844,2.234375 3.324219,4.964843 3.324219,8.199218 0,3.230469 -1.089844,5.933594 -3.269531,8.109375 -2.3125,2.289063 -5.042969,3.433594 -8.199219,3.433594 -3.113281,0 -5.800781,-1.136719 -8.054688,-3.40625 C 4.792969,20.339844 3.667969,17.625 3.667969,14.472656 c 0,-3.15625 1.125,-5.890625 3.382812,-8.199218 2.195313,-2.230469 4.882813,-3.347657 8.054688,-3.347657 3.210937,0 5.925781,1.117188 8.144531,3.347657 z M 8.542969,7.777344 c -1.875,1.902344 -2.8125,4.136719 -2.8125,6.695312 0,2.5625 0.929687,4.773438 2.78125,6.640625 1.855469,1.867188 4.066406,2.800782 6.628906,2.800782 2.5625,0 4.789063,-0.941407 6.683594,-2.828125 1.796875,-1.753907 2.695312,-3.957032 2.695312,-6.613282 0,-2.636718 -0.914062,-4.871093 -2.738281,-6.710937 -1.828125,-1.839844 -4.039062,-2.757813 -6.640625,-2.757813 -2.601562,0 -4.800781,0.925782 -6.597656,2.773438 z m 4.933594,5.570312 C 13.1875,12.71875 12.761719,12.40625 12.1875,12.40625 c -1.011719,0 -1.515625,0.683594 -1.515625,2.054688 0,1.367187 0.503906,2.050781 1.515625,2.050781 0.667969,0 1.144531,-0.332031 1.429688,-1 l 1.402343,0.75 c -0.667968,1.195312 -1.667968,1.792969 -3.003906,1.792969 -1.03125,0 -1.859375,-0.316407 -2.476562,-0.953125 -0.621094,-0.636719 -0.933594,-1.511719 -0.933594,-2.628907 0,-1.101562 0.320312,-1.972656 0.960937,-2.617187 0.640625,-0.644531 1.4375,-0.96875 2.390625,-0.96875 1.414063,0 2.421875,0.5625 3.035157,1.679687 z m 6.589843,0 C 19.78125,12.71875 19.359375,12.40625 18.808594,12.40625 c -1.03125,0 -1.550781,0.683594 -1.550781,2.054688 0,1.367187 0.519531,2.050781 1.550781,2.050781 0.667969,0 1.136719,-0.332031 1.402344,-1 l 1.433593,0.75 c -0.667968,1.195312 -1.667968,1.792969 -3.003906,1.792969 -1.027344,0 -1.851562,-0.316407 -2.46875,-0.953125 -0.621094,-0.636719 -0.929687,-1.511719 -0.929687,-2.628907 0,-1.101562 0.3125,-1.972656 0.941406,-2.617187 0.628906,-0.644531 1.429687,-0.96875 2.402344,-0.96875 1.410156,0 2.417968,0.5625 3.027343,1.679687 z"
             style="fill:#000000;fill-opacity:1;fill-rule:nonzero;stroke:none;stroke-width:0.466376"
             inkscape:connector-curvature="0" />
          <path
             id="path891"
             d="m 63.804688,11.230469 c 0,4.378906 -3.527344,7.925781 -7.875,7.925781 -4.351563,0 -7.875,-3.546875 -7.875,-7.925781 0,-4.375 3.523437,-7.925781 7.875,-7.925781 4.347656,0 7.875,3.550781 7.875,7.925781 z"
             style="fill:#ffffff;fill-opacity:1;fill-rule:nonzero;stroke:none;stroke-width:0.466376"
             inkscape:connector-curvature="0" />
          <path
             id="path893"
             d="m 58.207031,8.9375 c 0,-0.304687 -0.246093,-0.550781 -0.546875,-0.550781 h -3.480468 c -0.300782,0 -0.546875,0.246094 -0.546875,0.550781 v 3.5 h 0.96875 v 4.148438 h 2.636718 V 12.4375 h 0.96875 z"
             style="fill:#000000;fill-opacity:1;fill-rule:nonzero;stroke:none;stroke-width:0.466376"
             inkscape:connector-curvature="0" />
          <path
             id="path895"
             d="m 57.109375,6.726563 c 0,0.660156 -0.53125,1.199218 -1.1875,1.199218 -0.660156,0 -1.191406,-0.539062 -1.191406,-1.199218 0,-0.660157 0.53125,-1.195313 1.191406,-1.195313 0.65625,0 1.1875,0.535156 1.1875,1.195313 z"
             style="fill:#000000;fill-opacity:1;fill-rule:nonzero;stroke:none;stroke-width:0.466376"
             inkscape:connector-curvature="0" />
          <path
             id="path897"
             d="m 55.910156,2.5 c -2.355468,0 -4.351562,0.828125 -5.984375,2.480469 -1.671875,1.710937 -2.507812,3.738281 -2.507812,6.078125 0,2.335937 0.835937,4.347656 2.507812,6.03125 1.675782,1.683594 3.671875,2.523437 5.984375,2.523437 2.339844,0 4.371094,-0.847656 6.085938,-2.542968 1.617187,-1.613282 2.429687,-3.617188 2.429687,-6.011719 0,-2.398438 -0.824218,-4.421875 -2.46875,-6.078125 C 60.308594,3.328125 58.292969,2.5 55.910156,2.5 Z m 0.01953,1.539063 c 1.929687,0 3.570312,0.683593 4.917968,2.054687 1.363282,1.355469 2.042969,3.007813 2.042969,4.964844 0,1.964844 -0.667969,3.601562 -2,4.898437 -1.40625,1.398438 -3.058594,2.097657 -4.960937,2.097657 -1.902344,0 -3.539063,-0.691407 -4.917969,-2.078125 -1.375,-1.382813 -2.0625,-3.023438 -2.0625,-4.917969 0,-1.898438 0.695312,-3.554688 2.085937,-4.964844 C 52.367188,4.722656 54,4.039063 55.929688,4.039063 Z"
             style="fill:#000000;fill-opacity:1;fill-rule:evenodd;stroke:none;stroke-width:0.466376"
             inkscape:connector-curvature="0" />
        </g>
      </g>
      <text
         id="text921"
         y="268.24915"
         x="179.56131"
         style="font-style:normal;font-variant:normal;font-weight:normal;font-stretch:normal;font-size:5.64444px;line-height:1.25;font-family:sans-serif;-inkscape-font-specification:sans-serif;text-align:center;letter-spacing:0px;word-spacing:0px;text-anchor:middle;fill:#ffffff;fill-opacity:1;stroke:none;stroke-width:0.32444"
         xml:space="preserve"><tspan
           style="text-align:center;text-anchor:middle;fill:#ffffff;fill-opacity:1;stroke-width:0.32444"
           y="268.24915"
           x="179.56131"
           id="tspan919"
           sodipodi:role="line">Materiał video rozpowszechniany na zasadach</tspan><tspan
           id="tspan923"
           style="text-align:center;text-anchor:middle;fill:#ffffff;fill-opacity:1;stroke-width:0.32444"
           y="275.30469"
           x="179.56131"
           sodipodi:role="line">licencji Creative Commons Uznanie Autorstwa</tspan><tspan
           id="tspan925"
           style="text-align:center;text-anchor:middle;fill:#ffffff;fill-opacity:1;stroke-width:0.32444"
           y="282.36026"
           x="179.56131"
           sodipodi:role="line">https://creativecommons.org/licenses/by/3.0/pl/</tspan></text>
    </g>
    <text
       xml:space="preserve"
       style="font-style:normal;font-variant:normal;font-weight:normal;font-stretch:normal;font-size:7.60161px;line-height:1.25;font-family:sans-serif;-inkscape-font-specification:sans-serif;letter-spacing:0px;word-spacing:0px;fill:#ffffff;fill-opacity:1;stroke:none;stroke-width:0.264583"
       x="167.65411"
       y="132.43762"
       id="text947"><tspan
         sodipodi:role="line"
         id="tspan945"
         x="167.65411"
         y="132.43762"
         style="font-size:7.60161px;fill:#ffffff;fill-opacity:1;stroke-width:0.264583">Robert Paciorek</tspan></text>
    <text
       xml:space="preserve"
       style="font-style:normal;font-variant:normal;font-weight:normal;font-stretch:normal;font-size:7.60161px;line-height:1.25;font-family:sans-serif;-inkscape-font-specification:sans-serif;text-align:end;letter-spacing:0px;word-spacing:0px;text-anchor:end;fill:#ffffff;fill-opacity:1;stroke:none;stroke-width:0.264583"
       x="152.07072"
       y="131.94643"
       id="text947-3"><tspan
         sodipodi:role="line"
         id="tspan945-6"
         x="152.07072"
         y="131.94643"
         style="font-size:7.60161px;text-align:end;text-anchor:end;fill:#ffffff;fill-opacity:1;stroke-width:0.264583">scenariusz i realizacja</tspan></text>
    <text
       xml:space="preserve"
       style="font-style:normal;font-variant:normal;font-weight:normal;font-stretch:normal;font-size:7.60161px;line-height:1.25;font-family:sans-serif;-inkscape-font-specification:sans-serif;text-align:start;letter-spacing:0px;word-spacing:0px;text-anchor:start;fill:#ffffff;fill-opacity:1;stroke:none;stroke-width:0.264583"
       x="167.98074"
       y="146.94083"
       id="text947-7"><tspan
         sodipodi:role="line"
         id="tspan945-5"
         x="167.98074"
         y="146.94083"
         style="font-size:7.60161px;text-align:start;text-anchor:start;fill:#ffffff;fill-opacity:1;stroke-width:0.264583">Google Cloud Text-to-Speech</tspan><tspan
         sodipodi:role="line"
         x="167.98074"
         y="156.44284"
         style="font-size:7.60161px;text-align:start;text-anchor:start;fill:#ffffff;fill-opacity:1;stroke-width:0.264583"
         id="tspan995">głos <tspan
   style="font-style:italic;font-variant:normal;font-weight:normal;font-stretch:normal;font-size:7.60161px;font-family:sans-serif;-inkscape-font-specification:'sans-serif Italic';text-align:start;text-anchor:start;fill:#ffffff;fill-opacity:1;stroke-width:0.264583"
   id="tspan993">pl-PL-Wavenet-E</tspan></tspan></text>
    <text
       xml:space="preserve"
       style="font-style:normal;font-variant:normal;font-weight:normal;font-stretch:normal;font-size:7.60161px;line-height:1.25;font-family:sans-serif;-inkscape-font-specification:sans-serif;text-align:end;letter-spacing:0px;word-spacing:0px;text-anchor:end;fill:#ffffff;fill-opacity:1;stroke:none;stroke-width:0.264583"
       x="151.37662"
       y="150.10817"
       id="text947-3-3"><tspan
         sodipodi:role="line"
         id="tspan945-6-5"
         x="153.79666"
         y="150.10817"
         style="font-size:7.60161px;text-align:end;text-anchor:end;fill:#ffffff;fill-opacity:1;stroke-width:0.264583">czytał </tspan></text>
    <text
       xml:space="preserve"
       style="font-style:normal;font-variant:normal;font-weight:normal;font-stretch:normal;font-size:6.96815px;line-height:1.25;font-family:sans-serif;-inkscape-font-specification:sans-serif;text-align:end;letter-spacing:0px;word-spacing:0px;text-anchor:end;fill:#ffffff;fill-opacity:1;stroke:none;stroke-width:0.264583"
       x="152.01288"
       y="186.78223"
       id="text1000"><tspan
         sodipodi:role="line"
         x="152.01288"
         y="186.78223"
         style="font-style:normal;font-variant:normal;font-weight:normal;font-stretch:normal;font-size:6.96815px;font-family:sans-serif;-inkscape-font-specification:sans-serif;text-align:end;text-anchor:end;fill:#ffffff;fill-opacity:1;stroke-width:0.264583"
         id="tspan936">przygotowano dla</tspan><tspan
         sodipodi:role="line"
         x="152.01288"
         y="195.49242"
         id="tspan1002" /></text>
    <g
       transform="matrix(0.2445088,0,0,-0.2445088,350.67254,162.03413)"
       inkscape:label="logo"
       id="g909"
       style="stroke-width:1.44280183">
      <path
         inkscape:connector-curvature="0"
         id="path913"
         style="fill:#ffffff;fill-opacity:1;fill-rule:nonzero;stroke:none;stroke-width:1.44280183"
         d="m -573.12973,-95.298912 c 0,-0.148278 -0.0371,-0.25942 -0.11114,-0.333429 -0.0369,-0.110969 -0.18524,-0.185238 -0.33325,-0.259247 -0.18516,-0.03687 -0.40753,-0.111143 -0.70365,-0.148103 -0.29638,-0.03713 -0.66677,-0.03713 -1.11117,-0.03713 -0.4444,0 -0.81478,0 -1.11117,0.03713 -0.25916,0.03696 -0.5184,0.111229 -0.66651,0.148103 -0.18515,0.07401 -0.29629,0.148278 -0.37039,0.259247 -0.074,0.07401 -0.11114,0.185151 -0.11114,0.333429 v 19.036583 h -0.0371 l -6.7405,-19.036583 c -0.074,-0.148278 -0.14802,-0.296295 -0.25925,-0.37039 -0.11114,-0.111143 -0.25916,-0.185151 -0.4444,-0.25916 -0.18515,-0.07427 -0.40752,-0.111229 -0.70364,-0.111229 -0.29638,-0.03713 -0.62964,-0.03713 -1.03716,-0.03713 -0.40727,0 -0.77766,0 -1.07395,0.03713 -0.25925,0.03696 -0.51849,0.07409 -0.70364,0.148103 -0.18524,0.07401 -0.33352,0.148278 -0.44449,0.259247 -0.11114,0.07401 -0.18515,0.222286 -0.22229,0.333429 l -6.51847,19.036583 h -0.0369 v -19.036583 c 0,-0.148278 -0.0371,-0.25942 -0.11115,-0.333429 -0.0371,-0.110969 -0.18523,-0.185238 -0.37039,-0.259247 -0.18515,-0.03687 -0.40726,-0.111143 -0.70364,-0.148103 -0.25925,-0.03713 -0.62964,-0.03713 -1.07404,-0.03713 -0.44439,0 -0.81478,0 -1.11116,0.03713 -0.25916,0.03696 -0.51841,0.111229 -0.66669,0.148103 -0.18524,0.07401 -0.29612,0.148278 -0.37039,0.259247 -0.0741,0.07401 -0.11097,0.185151 -0.11097,0.333429 v 20.851396 c 0,0.592502 0.14811,1.074034 0.48136,1.40729 0.33343,0.333515 0.77792,0.481532 1.33346,0.481532 h 3.11087 c 0.55563,0 1.03716,-0.03713 1.40755,-0.148017 0.40726,-0.07427 0.74052,-0.222373 1.0369,-0.444658 0.29638,-0.185239 0.55554,-0.481359 0.74078,-0.814788 0.18515,-0.370129 0.37039,-0.77774 0.48153,-1.296147 l 5.07379,-13.925658 h 0.0743 l 5.22207,13.888524 c 0.14801,0.518407 0.29638,0.963152 0.48127,1.29632 0.22237,0.333255 0.40752,0.629636 0.66677,0.851749 0.25925,0.222285 0.55563,0.370389 0.88888,0.444658 0.33343,0.110883 0.7407,0.148017 1.18518,0.148017 h 3.18514 c 0.33326,0 0.62964,-0.03713 0.85175,-0.111143 0.22229,-0.111143 0.44466,-0.222112 0.59268,-0.370389 0.14801,-0.185152 0.25924,-0.37039 0.33325,-0.592502 0.074,-0.25916 0.11114,-0.518407 0.11114,-0.814788 z m 24.29579,1.110908 c 0.11123,-0.444398 0.22237,-0.777653 0.25925,-1.036813 0.0371,-0.259247 0,-0.444485 -0.14802,-0.555628 -0.1481,-0.148017 -0.37039,-0.222286 -0.70365,-0.259246 -0.33325,-0.03713 -0.81478,-0.03713 -1.40755,-0.03713 -0.5925,0 -1.07403,0 -1.40728,0.03713 -0.37039,0 -0.62955,0.03696 -0.81479,0.111229 -0.18515,0.03687 -0.29638,0.110883 -0.37039,0.222026 -0.074,0.07409 -0.14802,0.222372 -0.18515,0.370389 l -1.51852,4.703661 h -8.85161 l -1.44442,-4.555557 c -0.074,-0.185238 -0.11115,-0.333255 -0.22238,-0.444398 -0.074,-0.110969 -0.18489,-0.185238 -0.37013,-0.259247 -0.14827,-0.07401 -0.40752,-0.111143 -0.74078,-0.148103 -0.29638,-0.03713 -0.74077,-0.03713 -1.25918,-0.03713 -0.55563,0 -0.96315,0 -1.29641,0.03713 -0.29629,0.03696 -0.5184,0.148103 -0.62955,0.296381 -0.1481,0.110969 -0.18524,0.333255 -0.1481,0.592502 0.0369,0.222285 0.1481,0.55554 0.25925,0.999939 l 7.22203,20.777387 c 0.0741,0.185239 0.1481,0.37039 0.25924,0.481533 0.074,0.148104 0.25925,0.222112 0.4444,0.296121 0.22238,0.07409 0.5185,0.111229 0.88889,0.111229 0.37039,0.03714 0.85192,0.03714 1.48155,0.03714 0.70365,0 1.29606,0 1.70359,-0.03714 0.40726,0 0.74078,-0.03713 1.00002,-0.111229 0.22212,-0.07401 0.37039,-0.185152 0.48154,-0.296121 0.11097,-0.148277 0.18523,-0.333429 0.25924,-0.555541 z m -10.74043,17.184896 h -0.037 l -3.25915,-9.962777 h 6.55526 z m 29.55525,2.481584 c 0,-0.333516 0,-0.629637 -0.0371,-0.889057 -0.0371,-0.259246 -0.0741,-0.444398 -0.1481,-0.592502 -0.0371,-0.148017 -0.11114,-0.259246 -0.22229,-0.333255 -0.0741,-0.07401 -0.18524,-0.111143 -0.29638,-0.111143 h -5.8517 v -18.851431 c 0,-0.148278 -0.0371,-0.25942 -0.11114,-0.333429 -0.074,-0.110969 -0.22212,-0.185238 -0.40727,-0.259247 -0.14836,-0.03687 -0.40752,-0.111143 -0.70364,-0.148103 -0.33352,-0.03713 -0.70391,-0.03713 -1.14831,-0.03713 -0.48136,0 -0.85174,0 -1.14804,0.03713 -0.33325,0.03696 -0.55563,0.111229 -0.74078,0.148103 -0.18524,0.07401 -0.33325,0.148278 -0.40726,0.259247 -0.0741,0.07401 -0.11123,0.185151 -0.11123,0.333429 v 18.851431 h -5.85162 c -0.11123,0 -0.22237,0.03713 -0.29638,0.111143 -0.074,0.07401 -0.1481,0.185238 -0.22237,0.333255 -0.074,0.148104 -0.11088,0.333256 -0.14802,0.592502 -0.0369,0.25942 -0.0369,0.555541 -0.0369,0.889057 0,0.370389 0,0.66651 0.0369,0.925757 0.0371,0.259159 0.074,0.481532 0.14802,0.629549 0.0743,0.148364 0.14836,0.259507 0.22237,0.296381 0.074,0.07401 0.18515,0.111143 0.29638,0.111143 h 16.48099 c 0.11114,0 0.22229,-0.03713 0.29638,-0.111143 0.11115,-0.03687 0.18515,-0.148017 0.22229,-0.296381 0.074,-0.148017 0.11097,-0.37039 0.1481,-0.629549 0.0371,-0.259247 0.0371,-0.555368 0.0371,-0.925757 z m 16.629,-19.55525 c 0,-0.37039 0,-0.666771 -0.0369,-0.888883 -0.0371,-0.25916 -0.074,-0.444398 -0.14828,-0.592675 -0.0369,-0.148104 -0.11097,-0.222113 -0.22211,-0.296121 -0.074,-0.07401 -0.18515,-0.111143 -0.29638,-0.111143 h -11.74046 c -0.40726,0 -0.74077,0.111143 -1.00002,0.370389 -0.25916,0.222026 -0.40727,0.592416 -0.40727,1.148043 v 20.406912 c 0,0.518753 0.14811,0.888883 0.40727,1.148303 0.25925,0.222112 0.59276,0.333255 1.00002,0.333255 h 11.70359 c 0.074,0 0.18523,-0.03713 0.25924,-0.07401 0.11088,-0.07401 0.18515,-0.185151 0.22211,-0.333515 0.074,-0.148017 0.11115,-0.333255 0.14828,-0.592415 0.0369,-0.222373 0.0369,-0.518493 0.0369,-0.888883 0,-0.333515 0,-0.629549 -0.0369,-0.851922 -0.0371,-0.259247 -0.0743,-0.444398 -0.14828,-0.592502 -0.037,-0.148277 -0.11123,-0.222286 -0.22211,-0.296294 -0.074,-0.07409 -0.18524,-0.11123 -0.25924,-0.11123 h -8.37034 v -5.7036 h 7.03688 c 0.11114,0 0.22229,-0.03687 0.29638,-0.110882 0.11115,-0.03714 0.18515,-0.148364 0.22229,-0.296381 0.074,-0.148104 0.11088,-0.333256 0.14801,-0.555628 0.0372,-0.222026 0.0372,-0.518407 0.0372,-0.851662 0,-0.370389 0,-0.62981 -0.0372,-0.889056 -0.0371,-0.222113 -0.074,-0.407264 -0.14801,-0.518494 -0.0371,-0.148017 -0.11114,-0.259159 -0.22229,-0.296294 -0.0741,-0.07409 -0.18524,-0.110969 -0.29638,-0.110969 h -7.03688 v -6.592396 h 8.40721 c 0.11123,0 0.22237,-0.03714 0.29638,-0.11123 0.11114,-0.03713 0.18524,-0.148277 0.22211,-0.296294 0.0743,-0.148104 0.11115,-0.333256 0.14828,-0.592502 0.0369,-0.222373 0.0369,-0.518667 0.0369,-0.851922 z m 31.48103,-1.222138 c 0,-0.148278 -0.0371,-0.25942 -0.11123,-0.333429 -0.0369,-0.110969 -0.18515,-0.185238 -0.33325,-0.259247 -0.18515,-0.03687 -0.40752,-0.111143 -0.70356,-0.148103 -0.29638,-0.03713 -0.66677,-0.03713 -1.11117,-0.03713 -0.44448,0 -0.81487,0 -1.11117,0.03713 -0.25924,0.03696 -0.51849,0.111229 -0.66651,0.148103 -0.18523,0.07401 -0.29638,0.148278 -0.37039,0.259247 -0.074,0.07401 -0.11114,0.185151 -0.11114,0.333429 v 19.036583 h -0.0371 l -6.74059,-19.036583 c -0.074,-0.148278 -0.14802,-0.296295 -0.25916,-0.37039 -0.11123,-0.111143 -0.25925,-0.185151 -0.44448,-0.25916 -0.18516,-0.07427 -0.40753,-0.111229 -0.70356,-0.111229 -0.29638,-0.03713 -0.62964,-0.03713 -1.03716,-0.03713 -0.40727,0 -0.77766,0 -1.07404,0.03713 -0.25924,0.03696 -0.5184,0.07409 -0.70364,0.148103 -0.18515,0.07401 -0.33352,0.148278 -0.4444,0.259247 -0.11114,0.07401 -0.18524,0.222286 -0.22237,0.333429 l -6.51839,19.036583 h -0.0369 v -19.036583 c 0,-0.148278 -0.0371,-0.25942 -0.11123,-0.333429 -0.0371,-0.110969 -0.18515,-0.185238 -0.37039,-0.259247 -0.18515,-0.03687 -0.40727,-0.111143 -0.70365,-0.148103 -0.25916,-0.03713 -0.62955,-0.03713 -1.07395,-0.03713 -0.44448,0 -0.81487,0 -1.11116,0.03713 -0.25925,0.03696 -0.5185,0.111229 -0.66677,0.148103 -0.18524,0.07401 -0.29613,0.148278 -0.37039,0.259247 -0.074,0.07401 -0.11089,0.185151 -0.11089,0.333429 v 20.851396 c 0,0.592502 0.14802,1.074034 0.48128,1.40729 0.33351,0.333515 0.77791,0.481532 1.33345,0.481532 h 3.11096 c 0.55554,0 1.03716,-0.03713 1.40746,-0.148017 0.40735,-0.07427 0.74061,-0.222373 1.0369,-0.444658 0.29638,-0.185239 0.55563,-0.481359 0.74078,-0.814788 0.18524,-0.370129 0.37039,-0.77774 0.48162,-1.296147 l 5.0737,-13.925658 h 0.0743 l 5.22207,13.888524 c 0.1481,0.518407 0.29638,0.963152 0.48136,1.29632 0.22229,0.333255 0.40752,0.629636 0.66677,0.851749 0.25916,0.222285 0.55554,0.370389 0.8888,0.444658 0.33351,0.110883 0.74078,0.148017 1.18517,0.148017 h 3.18523 c 0.33326,0 0.62955,-0.03713 0.85166,-0.111143 0.22229,-0.111143 0.44466,-0.222112 0.59268,-0.370389 0.1481,-0.185152 0.25925,-0.37039 0.33325,-0.592502 0.0741,-0.25916 0.11123,-0.518407 0.11123,-0.814788 z m 20.59215,6.073816 c 0,-0.629636 -0.074,-1.074034 -0.18523,-1.40729 -0.11089,-0.333255 -0.29612,-0.481532 -0.51841,-0.481532 h -2.07406 v -4.222129 c 0,-0.148017 -0.0371,-0.222285 -0.11114,-0.333255 -0.074,-0.07401 -0.18515,-0.148277 -0.37039,-0.222286 -0.18515,-0.07401 -0.40727,-0.111143 -0.70365,-0.148103 -0.29638,-0.03713 -0.66651,-0.03713 -1.14804,-0.03713 -0.40752,0 -0.77765,0 -1.07403,0.03713 -0.29639,0.03696 -0.55555,0.07409 -0.70365,0.148103 -0.18515,0.07401 -0.29629,0.148278 -0.37039,0.222286 -0.074,0.11097 -0.11114,0.185238 -0.11114,0.333255 v 4.222129 h -8.96284 c -0.14802,0 -0.29638,0.03713 -0.4444,0.07401 -0.11114,0.03714 -0.22211,0.148278 -0.33325,0.296381 -0.074,0.148278 -0.14828,0.37039 -0.18524,0.62955 -0.0371,0.296381 -0.074,0.666771 -0.074,1.148303 0,0.370129 0,0.703645 0.0369,0.999766 0,0.296381 0.0371,0.555627 0.0741,0.777913 0.0371,0.222112 0.11114,0.444398 0.18515,0.66651 0.0743,0.185152 0.18524,0.407524 0.29638,0.629637 l 7.25917,12.814749 c 0.074,0.110883 0.18524,0.185152 0.33325,0.296121 0.14811,0.07427 0.33326,0.111143 0.59251,0.185152 0.25942,0.03713 0.59267,0.07409 1.00002,0.111229 0.3703,0.03714 0.88906,0.03714 1.44434,0.03714 0.59276,0 1.1483,0 1.55565,-0.03714 0.4444,-0.03713 0.81479,-0.07409 1.07395,-0.148104 0.25925,-0.07401 0.44449,-0.148277 0.55563,-0.259246 0.11114,-0.07427 0.18515,-0.185152 0.18515,-0.333429 V -87.29914 h 2.07406 c 0.18515,0 0.37039,-0.148104 0.48153,-0.444398 0.14811,-0.296381 0.22211,-0.77774 0.22211,-1.481558 z m -7.37013,12.666472 h -0.0371 l -6.14799,-10.740516 h 6.18513 z m 26.22174,2.0371 c 0,-0.333516 0,-0.629637 -0.0371,-0.889057 -0.0371,-0.259246 -0.074,-0.444398 -0.14801,-0.592502 -0.0371,-0.148017 -0.11115,-0.259246 -0.22237,-0.333255 -0.074,-0.07401 -0.18516,-0.111143 -0.2963,-0.111143 h -5.8517 v -18.851431 c 0,-0.148278 -0.0371,-0.25942 -0.11115,-0.333429 -0.0741,-0.110969 -0.22211,-0.185238 -0.40735,-0.259247 -0.14827,-0.03687 -0.40752,-0.111143 -0.70364,-0.148103 -0.33343,-0.03713 -0.70382,-0.03713 -1.1483,-0.03713 -0.48128,0 -0.85167,0 -1.14805,0.03713 -0.33325,0.03696 -0.55554,0.111229 -0.74078,0.148103 -0.18515,0.07401 -0.33325,0.148278 -0.40726,0.259247 -0.074,0.07401 -0.11114,0.185151 -0.11114,0.333429 v 18.851431 h -5.85171 c -0.11114,0 -0.22228,0.03713 -0.29629,0.111143 -0.0741,0.07401 -0.1481,0.185238 -0.22237,0.333255 -0.074,0.148104 -0.11089,0.333256 -0.14802,0.592502 -0.037,0.25942 -0.037,0.555541 -0.037,0.889057 0,0.370389 0,0.66651 0.037,0.925757 0.0371,0.259159 0.074,0.481532 0.14802,0.629549 0.0743,0.148364 0.14827,0.259507 0.22237,0.296381 0.074,0.07401 0.18515,0.111143 0.29629,0.111143 h 16.48108 c 0.11114,0 0.22229,-0.03713 0.2963,-0.111143 0.11122,-0.03687 0.18523,-0.148017 0.22237,-0.296381 0.074,-0.148017 0.11088,-0.37039 0.14801,-0.629549 0.0371,-0.259247 0.0371,-0.555368 0.0371,-0.925757 z m 12.22181,-12.55533 v -8.222058 c 0,-0.148278 -0.0369,-0.25942 -0.11114,-0.333429 -0.074,-0.110969 -0.22211,-0.185238 -0.40726,-0.259247 -0.14811,-0.03687 -0.40753,-0.111143 -0.70365,-0.148103 -0.33351,-0.03713 -0.7039,-0.03713 -1.1483,-0.03713 -0.48136,0 -0.88888,0 -1.18492,0.03713 -0.29638,0.03696 -0.51875,0.111229 -0.7039,0.148103 -0.22212,0.07401 -0.33326,0.148278 -0.40727,0.259247 -0.0741,0.07401 -0.11123,0.185151 -0.11123,0.333429 v 8.222058 l -6.40724,12.740568 c -0.22229,0.444398 -0.37039,0.814787 -0.4444,1.036813 -0.074,0.259247 -0.0371,0.444485 0.11114,0.592762 0.14811,0.110883 0.40727,0.184978 0.77766,0.222112 0.37039,0.03714 0.88888,0.03714 1.55556,0.03714 0.55563,0 0.9629,0 1.29615,-0.03714 0.33352,-0.03713 0.59276,-0.07409 0.81479,-0.148104 0.18524,-0.03713 0.33351,-0.148277 0.40752,-0.259246 0.074,-0.111143 0.18524,-0.222286 0.25925,-0.407524 l 2.6296,-5.740474 c 0.25925,-0.555628 0.48153,-1.148303 0.74078,-1.77794 0.25925,-0.592415 0.51841,-1.259185 0.77765,-1.925696 h 0.0371 c 0.22211,0.666511 0.44439,1.296147 0.70364,1.888822 0.22237,0.629637 0.4444,1.222052 0.70365,1.777679 l 2.55559,5.7036 c 0.074,0.185239 0.14802,0.37039 0.22202,0.481533 0.11123,0.110969 0.22238,0.185238 0.40753,0.259246 0.18524,0.07401 0.44448,0.11097 0.74078,0.148104 0.33325,0.03714 0.74078,0.03714 1.25927,0.03714 0.66651,0 1.22205,0 1.59244,-0.03714 0.37039,-0.03713 0.62964,-0.111229 0.77791,-0.222112 0.14811,-0.148277 0.18498,-0.333515 0.11097,-0.592762 -0.0741,-0.25916 -0.22211,-0.592415 -0.44448,-1.036813 z m 26.88852,-8.185097 c 0,-0.148104 -0.0371,-0.259247 -0.11115,-0.333256 -0.0371,-0.111229 -0.18524,-0.185238 -0.37039,-0.259246 -0.18524,-0.07401 -0.4444,-0.148278 -0.77765,-0.185238 -0.29638,-0.03713 -0.70391,-0.03713 -1.22231,-0.03713 -0.77774,0 -1.33328,0.03713 -1.66654,0.07409 -0.37039,0.07427 -0.59267,0.185152 -0.74078,0.296295 -0.14827,0.111229 -0.29638,0.259246 -0.37039,0.444485 l -7.07401,11.110819 v -11.110819 c 0,-0.148104 -0.0369,-0.259247 -0.11115,-0.37039 -0.074,-0.07409 -0.18497,-0.185238 -0.37012,-0.222112 -0.18524,-0.07401 -0.40753,-0.148278 -0.74078,-0.185238 -0.29638,-0.03713 -0.66677,-0.03713 -1.14831,-0.03713 -0.44439,0 -0.81478,0 -1.14804,0.03713 -0.29638,0.03696 -0.51849,0.111229 -0.70364,0.185238 -0.18524,0.07401 -0.33326,0.148017 -0.40753,0.222112 -0.074,0.111143 -0.11097,0.222286 -0.11097,0.37039 v 22.036573 c 0,0.148277 0.037,0.25916 0.11097,0.333429 0.0743,0.110969 0.22229,0.185238 0.40753,0.259246 0.18515,0.03688 0.40726,0.11097 0.70364,0.148104 0.33326,0.03714 0.70365,0.03714 1.14804,0.03714 0.48154,0 0.85193,0 1.14831,-0.03714 0.33325,-0.03713 0.55554,-0.111229 0.74078,-0.148104 0.18515,-0.07401 0.29612,-0.148277 0.37012,-0.259246 0.0743,-0.07427 0.11115,-0.185152 0.11115,-0.333429 v -9.962603 l 6.85173,9.962603 c 0.0743,0.148277 0.18515,0.25916 0.29629,0.37039 0.14811,0.111143 0.29638,0.185151 0.48162,0.25916 0.18515,0.03713 0.4444,0.07409 0.74078,0.111229 0.29603,0.03714 0.70356,0.03714 1.14804,0.03714 0.48154,0 0.8888,0 1.18518,-0.03714 0.33326,-0.03713 0.59242,-0.111229 0.77765,-0.185238 0.18515,-0.03687 0.29638,-0.148017 0.37039,-0.222112 0.074,-0.111143 0.11115,-0.222286 0.11115,-0.333429 0,-0.185238 -0.0371,-0.40735 -0.14828,-0.629636 -0.11097,-0.222112 -0.33326,-0.555628 -0.62964,-1.0369 l -6.40724,-8.40721 7,-10.592499 c 0.25916,-0.481532 0.40727,-0.814787 0.48154,-0.962804 0.0369,-0.185239 0.074,-0.296381 0.074,-0.407524 z m 22.36982,1.073947 c 0.11115,-0.444398 0.22238,-0.777653 0.25925,-1.036813 0.0371,-0.259247 0,-0.444485 -0.1481,-0.555628 -0.14802,-0.148017 -0.37039,-0.222286 -0.70356,-0.259246 -0.33326,-0.03713 -0.81488,-0.03713 -1.40755,-0.03713 -0.5925,0 -1.07404,0 -1.40729,0.03713 -0.37039,0 -0.62964,0.03696 -0.81479,0.111229 -0.18524,0.03687 -0.29638,0.110883 -0.37039,0.222026 -0.074,0.07409 -0.1481,0.222372 -0.18524,0.370389 l -1.51843,4.703661 h -8.85161 l -1.44442,-4.555557 c -0.0741,-0.185238 -0.11123,-0.333255 -0.22237,-0.444398 -0.074,-0.110969 -0.18498,-0.185238 -0.37013,-0.259247 -0.14828,-0.07401 -0.40753,-0.111143 -0.74078,-0.148103 -0.29638,-0.03713 -0.74078,-0.03713 -1.25919,-0.03713 -0.55562,0 -0.96315,0 -1.2964,0.03713 -0.29638,0.03696 -0.51841,0.148103 -0.62955,0.296381 -0.14811,0.110969 -0.18524,0.333255 -0.14811,0.592502 0.0369,0.222285 0.14811,0.55554 0.25925,0.999939 l 7.22203,20.777387 c 0.074,0.185239 0.14811,0.37039 0.25925,0.481533 0.074,0.148104 0.25925,0.222112 0.4444,0.296121 0.22237,0.07409 0.51849,0.111229 0.88879,0.111229 0.37039,0.03714 0.85201,0.03714 1.48156,0.03714 0.70365,0 1.29615,0 1.70367,-0.03714 0.40727,0 0.74078,-0.03713 1.00003,-0.111229 0.22202,-0.07401 0.37039,-0.185152 0.48153,-0.296121 0.11088,-0.148277 0.18515,-0.333429 0.25925,-0.555541 z m -10.74051,17.184896 h -0.0369 l -3.25923,-9.962777 h 6.55534 z" />
      <path
         inkscape:connector-curvature="0"
         id="path915"
         style="fill:#ffffff;fill-opacity:1;fill-rule:nonzero;stroke:none;stroke-width:1.44280183"
         d="m -589.28067,-107.54233 c 0,-1.18275 -0.1429,-2.18199 -0.46904,-3.01795 -0.30592,-0.85635 -0.7341,-1.52928 -1.32556,-2.05948 -0.5709,-0.5303 -1.28461,-0.91761 -2.10009,-1.18275 -0.83622,-0.24476 -1.81481,-0.36692 -2.95678,-0.36692 h -3.07912 c -0.22428,0 -0.40778,0.0612 -0.55042,0.20389 -0.1429,0.12242 -0.22428,0.32631 -0.22428,0.63207 v 11.23558 c 0,0.28528 0.0814,0.48934 0.22428,0.63207 0.14264,0.12216 0.32614,0.18341 0.55042,0.18341 h 3.30349 c 1.16227,0 2.12048,-0.14264 2.9363,-0.40778 0.7951,-0.26506 1.46803,-0.65246 2.01862,-1.18266 0.55043,-0.5303 0.95847,-1.18275 1.24375,-1.95745 0.28553,-0.77497 0.42843,-1.67218 0.42843,-2.71203 z m -2.71203,-0.0816 c 0,0.61167 -0.0612,1.18274 -0.20406,1.69256 -0.14264,0.53003 -0.3874,0.9786 -0.69332,1.36616 -0.32614,0.3874 -0.71354,0.69332 -1.22336,0.89722 -0.48942,0.22428 -1.14188,0.32614 -1.93723,0.32614 h -1.32539 v -8.74767 h 1.36617 c 0.71371,0 1.32538,0.10186 1.81481,0.28554 0.48943,0.1835 0.89721,0.46878 1.22361,0.83595 0.32606,0.36692 0.57082,0.83596 0.7341,1.38664 0.16303,0.57082 0.24467,1.22327 0.24467,1.95746 z m 11.92865,-5.44444 c 0,-0.2039 0,-0.36692 -0.0204,-0.50982 -0.0204,-0.14264 -0.0408,-0.24467 -0.0817,-0.32614 -0.0204,-0.10203 -0.0612,-0.16303 -0.12224,-0.20389 -0.0408,-0.0408 -0.10204,-0.0612 -0.16329,-0.0612 h -5.91339 c -0.22429,0 -0.40779,0.0612 -0.55043,0.20389 -0.14289,0.12242 -0.22428,0.32631 -0.22428,0.63207 v 11.70453 c 0,0.061 0.0204,0.12225 0.0612,0.16312 0.0406,0.0612 0.12225,0.10177 0.22437,0.14263 0.10177,0.0204 0.22428,0.0612 0.40778,0.0816 0.16303,0.0204 0.36692,0.0204 0.63207,0.0204 0.24467,0 0.46895,0 0.63206,-0.0204 0.16303,-0.0205 0.30593,-0.0613 0.38731,-0.0816 0.10212,-0.0409 0.18377,-0.0815 0.22428,-0.14263 0.0409,-0.0409 0.0613,-0.10212 0.0613,-0.16312 v -10.37924 h 4.0578 c 0.0613,0 0.12251,-0.0201 0.16329,-0.061 0.061,-0.0204 0.10185,-0.0816 0.12224,-0.16329 0.0409,-0.0814 0.0613,-0.20389 0.0817,-0.34653 0.0204,-0.12224 0.0204,-0.28553 0.0204,-0.48942 z m 12.11214,-0.12217 c 0.0613,-0.24475 0.12251,-0.42826 0.1429,-0.57115 0.0201,-0.14264 0,-0.24467 -0.0816,-0.30567 -0.0816,-0.0816 -0.20389,-0.12251 -0.3874,-0.1429 -0.18367,-0.0204 -0.44856,-0.0204 -0.77496,-0.0204 -0.32632,0 -0.5912,0 -0.77496,0.0204 -0.2039,0 -0.34653,0.0204 -0.44857,0.0613 -0.10186,0.0204 -0.16302,0.0613 -0.20389,0.12225 -0.0406,0.0408 -0.0814,0.12242 -0.10186,0.20389 l -0.83613,2.58969 h -4.87337 l -0.79535,-2.50805 c -0.0406,-0.10186 -0.061,-0.1835 -0.12225,-0.24476 -0.0408,-0.0613 -0.10203,-0.10177 -0.20389,-0.14263 -0.0816,-0.0408 -0.22428,-0.0613 -0.40779,-0.0817 -0.16328,-0.0204 -0.40769,-0.0204 -0.69323,-0.0204 -0.30601,0 -0.53029,0 -0.7138,0.0204 -0.16302,0.0204 -0.28553,0.0817 -0.3467,0.16303 -0.0815,0.0613 -0.10186,0.18376 -0.0815,0.3264 0.0205,0.12225 0.0815,0.30593 0.14264,0.55068 l 3.97642,11.43922 c 0.0406,0.10203 0.0814,0.20389 0.14263,0.26515 0.0409,0.0816 0.14264,0.12216 0.24467,0.16302 0.12225,0.0408 0.28554,0.0613 0.48943,0.0613 0.20389,0.0204 0.46904,0.0204 0.81557,0.0204 0.3874,0 0.71371,0 0.93799,-0.0204 0.22437,0 0.40778,-0.0205 0.55068,-0.0613 0.12225,-0.0409 0.2039,-0.10186 0.26489,-0.16302 0.0613,-0.0817 0.10203,-0.18351 0.1429,-0.30602 z m -5.91339,9.46129 h -0.0204 l -1.79442,-5.48522 h 3.60915 z m 21.22691,-8.48269 c 0,-0.1835 0,-0.32614 -0.0201,-0.42826 0,-0.12216 -0.0204,-0.22428 -0.0409,-0.30567 -0.0204,-0.0816 -0.0408,-0.16328 -0.0816,-0.22428 -0.0204,-0.0409 -0.0816,-0.12251 -0.16303,-0.18376 -0.0612,-0.0814 -0.20389,-0.18342 -0.40778,-0.30566 -0.22428,-0.10212 -0.46904,-0.22429 -0.77497,-0.32641 -0.30592,-0.12224 -0.65245,-0.20389 -1.03985,-0.28553 -0.38757,-0.061 -0.79535,-0.10177 -1.244,-0.10177 -0.89712,0 -1.6923,0.14263 -2.38562,0.40778 -0.71371,0.26506 -1.32556,0.67284 -1.81473,1.22353 -0.5099,0.53003 -0.87682,1.20287 -1.14197,2.0187 -0.26506,0.81548 -0.40796,1.75356 -0.40796,2.83419 0,1.08089 0.1429,2.05948 0.44883,2.91592 0.28527,0.83613 0.69306,1.54992 1.22326,2.14112 0.50991,0.57082 1.14197,0.99925 1.87607,1.305 0.7341,0.30593 1.54967,0.44856 2.42649,0.44856 0.3467,0 0.69332,-0.0204 1.04002,-0.0814 0.32614,-0.0613 0.63207,-0.1429 0.91743,-0.24476 0.28554,-0.10203 0.53021,-0.20389 0.75449,-0.32631 0.22428,-0.14264 0.38739,-0.24476 0.46904,-0.32614 0.10203,-0.10203 0.16302,-0.16329 0.1835,-0.22428 0.0408,-0.0613 0.0612,-0.1429 0.0816,-0.22428 0.0204,-0.10212 0.0408,-0.20416 0.0408,-0.34679 0.0205,-0.12225 0.0205,-0.26515 0.0205,-0.44865 0,-0.20381 0,-0.36692 -0.0205,-0.50982 -0.0204,-0.14264 -0.0408,-0.26515 -0.0612,-0.34653 -0.0408,-0.0816 -0.0817,-0.1429 -0.12216,-0.18342 -0.0409,-0.0409 -0.10212,-0.0613 -0.16338,-0.0613 -0.10177,0 -0.22428,0.0613 -0.36692,0.18341 -0.16302,0.10212 -0.36718,0.24476 -0.59146,0.3874 -0.2445,0.1429 -0.53003,0.26515 -0.87682,0.38757 -0.32605,0.10186 -0.73384,0.16311 -1.20288,0.16311 -0.50981,0 -0.95846,-0.10212 -1.36616,-0.30601 -0.38766,-0.22428 -0.73419,-0.50956 -1.01972,-0.89713 -0.28554,-0.38739 -0.48943,-0.85643 -0.63207,-1.40702 -0.14264,-0.55043 -0.22428,-1.18249 -0.22428,-1.85542 0,-0.75458 0.0816,-1.42742 0.24467,-1.9781 0.14264,-0.55043 0.36701,-0.99899 0.65254,-1.36617 0.28554,-0.34653 0.63207,-0.61167 1.03985,-0.79518 0.40796,-0.1835 0.877,-0.26514 1.38656,-0.26514 0.46903,0 0.8566,0.0613 1.20313,0.16311 0.3264,0.10203 0.63207,0.22428 0.85644,0.36718 0.24467,0.12225 0.44856,0.24467 0.61185,0.34653 0.14263,0.10203 0.26488,0.16303 0.367,0.16303 0.0612,0 0.10177,-0.0201 0.14264,-0.0405 0.0408,-0.0205 0.0816,-0.0817 0.10203,-0.16338 0.0204,-0.0814 0.0409,-0.18341 0.0613,-0.32605 0.0201,-0.1429 0.0201,-0.34679 0.0201,-0.57107 z m 9.86942,-0.95821 c 0,-0.18376 0,-0.34679 -0.0205,-0.46904 -0.0204,-0.14289 -0.0612,-0.24467 -0.10203,-0.30592 -0.0204,-0.0816 -0.0613,-0.14264 -0.12225,-0.16311 -0.0408,-0.0408 -0.10203,-0.0612 -0.1429,-0.0612 h -7.13666 c -0.0409,0 -0.10212,0.0204 -0.1429,0.0612 -0.0406,0.0205 -0.0815,0.0815 -0.12224,0.16311 -0.0409,0.0613 -0.0613,0.16303 -0.0816,0.30592 -0.0205,0.12225 -0.0409,0.28528 -0.0409,0.46904 0,0.18342 0,0.34653 0.0204,0.48917 0.0205,0.12251 0.0409,0.22428 0.0817,0.30593 0.0408,0.0816 0.0816,0.14263 0.12216,0.16311 0.0613,0.0408 0.10212,0.0612 0.16337,0.0612 h 2.40602 v 8.38074 l -2.05949,-1.14188 c -0.16311,-0.0613 -0.28553,-0.12225 -0.38739,-0.14272 -0.0816,0 -0.16303,0.0205 -0.22428,0.061 -0.0613,0.0613 -0.0816,0.16338 -0.10212,0.30601 -0.0204,0.1429 -0.0405,0.32632 -0.0405,0.59146 0,0.14264 0,0.28528 0.0201,0.3874 0,0.10177 0.0204,0.18341 0.0409,0.26506 0.0204,0.061 0.0613,0.12225 0.10203,0.1835 0.0613,0.0409 0.12225,0.0814 0.2039,0.14264 l 2.7528,1.79442 c 0.0409,0.0204 0.0814,0.0408 0.12225,0.0612 0.0613,0.0205 0.12251,0.0205 0.20389,0.0409 0.0817,0 0.1835,0.0204 0.30593,0.0204 0.14263,0 0.30601,0 0.50981,0 0.24476,0 0.44865,0 0.61168,-0.0204 0.16311,0 0.26515,-0.0204 0.34653,-0.0409 0.0816,-0.0204 0.1429,-0.0612 0.16329,-0.10203 0.0205,-0.0406 0.0409,-0.0814 0.0409,-0.14264 v -10.64412 h 2.10009 c 0.0613,0 0.12251,-0.0204 0.1835,-0.0612 0.0408,-0.0205 0.0816,-0.0815 0.12243,-0.16311 0.0409,-0.0816 0.0612,-0.18342 0.0816,-0.30593 0.0205,-0.14264 0.0205,-0.30575 0.0205,-0.48917 z m 9.97093,0.0406 c 0,-0.20389 0,-0.36701 -0.0204,-0.48926 -0.0205,-0.14289 -0.0409,-0.24467 -0.0815,-0.32631 -0.0204,-0.0816 -0.0612,-0.12225 -0.12242,-0.16311 -0.0409,-0.0408 -0.10186,-0.0612 -0.16312,-0.0612 h -6.46407 c -0.22428,0 -0.4077,0.0612 -0.55042,0.20389 -0.14281,0.12242 -0.22429,0.32631 -0.22429,0.63207 v 11.23558 c 0,0.28528 0.0815,0.48934 0.22429,0.63207 0.14272,0.12216 0.32614,0.18341 0.55042,0.18341 h 6.44368 c 0.0409,0 0.10186,-0.0204 0.14264,-0.0408 0.0613,-0.0409 0.10212,-0.10186 0.12251,-0.1835 0.0408,-0.0816 0.061,-0.1835 0.0814,-0.32614 0.0204,-0.12242 0.0204,-0.28554 0.0204,-0.48943 0,-0.18341 0,-0.34679 -0.0204,-0.46895 -0.0204,-0.1429 -0.0406,-0.24476 -0.0814,-0.3264 -0.0204,-0.0814 -0.0612,-0.12225 -0.12251,-0.16303 -0.0408,-0.0409 -0.10177,-0.0613 -0.14264,-0.0613 h -4.60839 v -3.1402 h 3.87429 c 0.0613,0 0.12243,-0.0204 0.16303,-0.0613 0.0613,-0.0204 0.10203,-0.0814 0.12251,-0.16302 0.0408,-0.0816 0.0613,-0.18351 0.0816,-0.30593 0.0201,-0.12225 0.0201,-0.28536 0.0201,-0.46904 0,-0.20389 0,-0.34653 -0.0201,-0.48916 -0.0204,-0.12251 -0.0409,-0.22429 -0.0816,-0.28554 -0.0205,-0.0816 -0.0612,-0.14264 -0.12251,-0.16311 -0.0406,-0.0408 -0.10177,-0.0612 -0.16303,-0.0612 h -3.87429 v -3.62963 h 4.62878 c 0.0613,0 0.12225,-0.0204 0.16312,-0.0613 0.0613,-0.0204 0.10203,-0.0814 0.12242,-0.16303 0.0406,-0.0816 0.061,-0.1835 0.0815,-0.3264 0.0204,-0.12225 0.0204,-0.28528 0.0204,-0.46895 z m 11.72475,-0.65254 c 0,-0.0814 -0.0204,-0.14264 -0.061,-0.18342 -0.0204,-0.0613 -0.10203,-0.10186 -0.20415,-0.14272 -0.10177,-0.0408 -0.24441,-0.0816 -0.42817,-0.10204 -0.16303,-0.0204 -0.38731,-0.0204 -0.67285,-0.0204 -0.42826,0 -0.73392,0.0204 -0.91768,0.0408 -0.20381,0.0409 -0.32606,0.10212 -0.4077,0.16312 -0.0815,0.0613 -0.16311,0.14289 -0.20389,0.24467 l -3.89478,6.11728 v -6.11728 c 0,-0.0814 -0.0204,-0.14264 -0.061,-0.2039 -0.0408,-0.0408 -0.10203,-0.10177 -0.20407,-0.12224 -0.10186,-0.0408 -0.22436,-0.0816 -0.40778,-0.10204 -0.16311,-0.0204 -0.36701,-0.0204 -0.63207,-0.0204 -0.24475,0 -0.44865,0 -0.63206,0.0204 -0.16311,0.0204 -0.28554,0.0613 -0.3874,0.10204 -0.10203,0.0409 -0.18367,0.0815 -0.22428,0.12224 -0.0409,0.0613 -0.0612,0.12251 -0.0612,0.2039 v 12.13279 c 0,0.0814 0.0204,0.14264 0.0612,0.18351 0.0406,0.0612 0.12225,0.10177 0.22428,0.14263 0.10186,0.0204 0.22429,0.0612 0.3874,0.0816 0.18341,0.0204 0.38731,0.0204 0.63206,0.0204 0.26506,0 0.46896,0 0.63207,-0.0204 0.18342,-0.0205 0.30592,-0.0613 0.40778,-0.0816 0.10204,-0.0409 0.16329,-0.0815 0.20407,-0.14263 0.0406,-0.0409 0.061,-0.10212 0.061,-0.18351 v -5.48522 l 3.77253,5.48522 c 0.0406,0.0814 0.10177,0.14264 0.16303,0.20389 0.0816,0.0613 0.16311,0.10178 0.26514,0.14264 0.10186,0.0204 0.24467,0.0408 0.40779,0.0613 0.16302,0.0204 0.3873,0.0204 0.63206,0.0204 0.26515,0 0.48943,0 0.65246,-0.0204 0.1835,-0.0205 0.3264,-0.0613 0.42817,-0.10212 0.10212,-0.0204 0.16337,-0.0814 0.20389,-0.12216 0.0409,-0.0613 0.0613,-0.12251 0.0613,-0.18351 0,-0.10203 -0.0204,-0.22428 -0.0814,-0.34679 -0.0612,-0.12225 -0.18376,-0.30566 -0.34679,-0.57081 l -3.5275,-4.62887 3.8539,-5.83175 c 0.14264,-0.26515 0.22429,-0.44865 0.2648,-0.53029 0.0205,-0.10177 0.0409,-0.16303 0.0409,-0.22428 z m 12.31621,0.59154 c 0.0613,-0.24475 0.12251,-0.42826 0.1429,-0.57115 0.0202,-0.14264 0,-0.24467 -0.0816,-0.30567 -0.0816,-0.0816 -0.2039,-0.12251 -0.38731,-0.1429 -0.18377,-0.0204 -0.44865,-0.0204 -0.77497,-0.0204 -0.3264,0 -0.59128,0 -0.77496,0.0204 -0.20389,0 -0.34653,0.0204 -0.44865,0.0613 -0.10177,0.0204 -0.16303,0.0613 -0.20389,0.12225 -0.0405,0.0408 -0.0814,0.12242 -0.10177,0.20389 l -0.83622,2.58969 h -4.87328 l -0.79544,-2.50805 c -0.0405,-0.10186 -0.061,-0.1835 -0.12225,-0.24476 -0.0408,-0.0613 -0.10204,-0.10177 -0.20381,-0.14263 -0.0817,-0.0408 -0.22437,-0.0613 -0.40778,-0.0817 -0.16329,-0.0204 -0.40779,-0.0204 -0.69332,-0.0204 -0.30593,0 -0.53029,0 -0.71371,0.0204 -0.16311,0.0204 -0.28554,0.0817 -0.34679,0.16303 -0.0814,0.0613 -0.10186,0.18376 -0.0814,0.3264 0.0204,0.12225 0.0814,0.30593 0.14263,0.55068 l 3.97633,11.43922 c 0.0406,0.10203 0.0815,0.20389 0.14264,0.26515 0.0409,0.0816 0.14264,0.12216 0.24476,0.16302 0.12225,0.0408 0.28553,0.0613 0.48943,0.0613 0.20389,0.0204 0.46895,0.0204 0.81548,0.0204 0.38739,0 0.71379,0 0.93808,-0.0204 0.22428,0 0.40778,-0.0205 0.55068,-0.0613 0.12216,-0.0409 0.2038,-0.10186 0.2648,-0.16302 0.0612,-0.0817 0.10212,-0.18351 0.14289,-0.30602 z m -5.91339,9.46129 h -0.0204 l -1.79442,-5.48522 h 3.60923 z m 21.26777,-9.7673 c -0.0408,-0.16302 -0.10203,-0.28553 -0.16303,-0.38731 -0.0816,-0.10212 -0.18376,-0.16337 -0.3264,-0.22436 -0.12225,-0.0408 -0.30592,-0.0816 -0.53021,-0.10204 -0.22428,-0.0204 -0.48916,-0.0204 -0.83595,-0.0204 -0.36701,0 -0.67293,0 -0.9176,0.0204 -0.22437,0.0204 -0.40779,0.0613 -0.53004,0.10204 -0.1429,0.061 -0.22428,0.12224 -0.28553,0.22436 -0.0613,0.10178 -0.12251,0.22429 -0.1429,0.38731 l -2.05948,8.15638 h -0.0202 l -1.95763,-8.15638 c -0.0409,-0.16302 -0.0815,-0.28553 -0.14272,-0.38731 -0.0612,-0.0816 -0.14281,-0.16337 -0.28554,-0.22436 -0.12216,-0.0408 -0.30592,-0.0816 -0.5302,-0.10204 -0.22428,-0.0204 -0.50956,-0.0204 -0.87682,-0.0204 -0.38731,0 -0.69324,0 -0.91761,0.0204 -0.22428,0.0204 -0.40769,0.0613 -0.55042,0.10204 -0.12242,0.061 -0.22428,0.12224 -0.28553,0.22436 -0.0612,0.10178 -0.10178,0.22429 -0.14264,0.38731 l -2.91583,11.23533 c -0.0613,0.24475 -0.10212,0.42843 -0.10212,0.57107 -0.0204,0.14263 0.0205,0.24475 0.10212,0.30601 0.0814,0.0814 0.22428,0.12216 0.40778,0.14264 0.20381,0.0204 0.44856,0.0204 0.79509,0.0204 0.30593,0 0.55069,0 0.7341,-0.0204 0.18351,0 0.3264,-0.0205 0.40779,-0.0613 0.10212,-0.0409 0.16311,-0.0814 0.20389,-0.16302 0.0204,-0.0613 0.0613,-0.16312 0.0816,-0.28554 l 2.26347,-9.86916 v 0 l 2.34502,9.78769 c 0.0406,0.12225 0.061,0.2445 0.10177,0.30575 0.0409,0.0816 0.12251,0.1429 0.22437,0.18342 0.10203,0.0613 0.24467,0.0816 0.42817,0.10212 0.18342,0.0204 0.40778,0.0204 0.71371,0.0204 0.32631,0 0.57107,0 0.75457,-0.0204 0.20381,-0.0205 0.34653,-0.0409 0.44857,-0.0816 0.10177,-0.0409 0.1835,-0.10186 0.22428,-0.1835 0.0409,-0.0816 0.0814,-0.1835 0.10186,-0.32614 l 2.44705,-9.78769 h 0.0202 l 2.24325,9.82829 c 0.0204,0.10204 0.0405,0.2039 0.061,0.28554 0.0408,0.0613 0.10203,0.12251 0.20389,0.16303 0.0816,0.0613 0.22428,0.0816 0.38757,0.10212 0.1835,0.0204 0.42817,0.0204 0.73392,0.0204 0.30593,0 0.53021,0 0.69323,-0.0204 0.16338,-0.0205 0.26515,-0.0613 0.34679,-0.14264 0.0817,-0.0613 0.10186,-0.18376 0.10186,-0.3264 -0.0202,-0.14264 -0.0406,-0.32632 -0.10186,-0.57081 z m 10.11383,4.22083 v -4.52675 c 0,-0.0814 -0.0204,-0.14264 -0.0613,-0.18351 -0.0408,-0.0613 -0.12216,-0.10177 -0.22428,-0.14263 -0.0816,-0.0204 -0.22428,-0.0613 -0.38731,-0.0817 -0.1835,-0.0204 -0.38739,-0.0204 -0.63206,-0.0204 -0.26515,0 -0.48943,0 -0.65272,0.0204 -0.16311,0.0204 -0.28536,0.0613 -0.38739,0.0817 -0.12225,0.0409 -0.1835,0.0814 -0.22428,0.14263 -0.0409,0.0409 -0.0613,0.10212 -0.0613,0.18351 v 4.52675 l -3.5275,7.0145 c -0.12225,0.24475 -0.2039,0.44865 -0.24476,0.57107 -0.0408,0.14263 -0.0204,0.24475 0.0612,0.32614 0.0814,0.0613 0.22428,0.10203 0.42818,0.12251 0.20389,0.0204 0.48942,0.0204 0.85634,0.0204 0.30602,0 0.5303,0 0.71371,-0.0204 0.18351,-0.0205 0.3264,-0.0409 0.44865,-0.0816 0.10204,-0.0205 0.18342,-0.0815 0.22428,-0.14263 0.0409,-0.0613 0.10204,-0.12251 0.14264,-0.22437 l 1.4479,-3.16059 c 0.14263,-0.30593 0.26506,-0.63207 0.40778,-0.97886 0.14281,-0.32605 0.28554,-0.69323 0.42817,-1.06024 h 0.0204 c 0.12251,0.36701 0.24467,0.71371 0.38757,1.03985 0.12225,0.34679 0.2445,0.67293 0.3874,0.97886 l 1.40703,3.1402 c 0.0406,0.10203 0.0814,0.20389 0.12224,0.26515 0.0613,0.0612 0.12243,0.10177 0.22429,0.14263 0.10203,0.0408 0.24467,0.0612 0.40778,0.0816 0.18342,0.0204 0.40778,0.0204 0.69332,0.0204 0.36718,0 0.67284,0 0.87674,-0.0204 0.20389,-0.0205 0.34679,-0.0613 0.42817,-0.12251 0.0816,-0.0814 0.10212,-0.18351 0.0612,-0.32614 -0.0408,-0.14264 -0.12225,-0.32632 -0.24467,-0.57107 z m 14.31427,-2.93622 c 0,-0.1835 0,-0.32614 -0.0201,-0.42826 0,-0.12216 -0.0204,-0.22428 -0.0409,-0.30567 -0.0204,-0.0816 -0.0408,-0.16328 -0.0816,-0.22428 -0.0204,-0.0409 -0.0816,-0.12251 -0.16303,-0.18376 -0.0613,-0.0814 -0.20389,-0.18342 -0.40778,-0.30566 -0.22428,-0.10212 -0.46904,-0.22429 -0.77497,-0.32641 -0.30592,-0.12224 -0.65245,-0.20389 -1.03985,-0.28553 -0.38756,-0.061 -0.79535,-0.10177 -1.24391,-0.10177 -0.89721,0 -1.69239,0.14263 -2.38571,0.40778 -0.71371,0.26506 -1.32556,0.67284 -1.81473,1.22353 -0.5099,0.53003 -0.87682,1.20287 -1.14197,2.0187 -0.26506,0.81548 -0.40796,1.75356 -0.40796,2.83419 0,1.08089 0.1429,2.05948 0.44883,2.91592 0.28527,0.83613 0.69306,1.54992 1.22326,2.14112 0.50991,0.57082 1.14197,0.99925 1.87607,1.305 0.73419,0.30593 1.54967,0.44856 2.42649,0.44856 0.34679,0 0.69332,-0.0204 1.04002,-0.0814 0.32614,-0.0613 0.63207,-0.1429 0.91743,-0.24476 0.28554,-0.10203 0.53021,-0.20389 0.75449,-0.32631 0.22437,-0.14264 0.38739,-0.24476 0.46904,-0.32614 0.10203,-0.10203 0.16302,-0.16329 0.1835,-0.22428 0.0408,-0.0613 0.0613,-0.1429 0.0816,-0.22428 0.0204,-0.10212 0.0408,-0.20416 0.0408,-0.34679 0.0205,-0.12225 0.0205,-0.26515 0.0205,-0.44865 0,-0.20381 0,-0.36692 -0.0205,-0.50982 -0.0204,-0.14264 -0.0408,-0.26515 -0.0612,-0.34653 -0.0409,-0.0816 -0.0817,-0.1429 -0.12224,-0.18342 -0.0409,-0.0409 -0.10212,-0.0613 -0.16338,-0.0613 -0.10177,0 -0.22428,0.0613 -0.36692,0.18341 -0.16302,0.10212 -0.36718,0.24476 -0.59146,0.3874 -0.24449,0.1429 -0.53003,0.26515 -0.87682,0.38757 -0.32605,0.10186 -0.73384,0.16311 -1.20288,0.16311 -0.50981,0 -0.95838,-0.10212 -1.36616,-0.30601 -0.38766,-0.22428 -0.73419,-0.50956 -1.01972,-0.89713 -0.28554,-0.38739 -0.48943,-0.85643 -0.63207,-1.40702 -0.14264,-0.55043 -0.22428,-1.18249 -0.22428,-1.85542 0,-0.75458 0.0816,-1.42742 0.24467,-1.9781 0.14273,-0.55043 0.36701,-0.99899 0.65254,-1.36617 0.28554,-0.34653 0.63207,-0.61167 1.03985,-0.79518 0.40796,-0.1835 0.877,-0.26514 1.38656,-0.26514 0.46904,0 0.8566,0.0613 1.20313,0.16311 0.3264,0.10203 0.63216,0.22428 0.85644,0.36718 0.24467,0.12225 0.44856,0.24467 0.61185,0.34653 0.14263,0.10203 0.26488,0.16303 0.367,0.16303 0.0612,0 0.10178,-0.0201 0.14264,-0.0405 0.0408,-0.0205 0.0816,-0.0817 0.10203,-0.16338 0.0204,-0.0814 0.0409,-0.18341 0.0613,-0.32605 0.0201,-0.1429 0.0201,-0.34679 0.0201,-0.57107 z m 11.92864,-1.59053 c 0,-0.0814 -0.0201,-0.14264 -0.061,-0.18351 -0.0408,-0.0613 -0.12243,-0.10177 -0.22429,-0.14263 -0.0816,-0.0204 -0.22428,-0.0613 -0.38756,-0.0817 -0.16312,-0.0204 -0.36701,-0.0204 -0.63207,-0.0204 -0.24476,0 -0.46904,0 -0.63207,0.0204 -0.16311,0.0204 -0.30601,0.0613 -0.40778,0.0817 -0.0816,0.0409 -0.16329,0.0814 -0.20389,0.14263 -0.0409,0.0409 -0.0613,0.10212 -0.0613,0.18351 v 5.19968 h -4.83276 v -5.19968 c 0,-0.0814 -0.0204,-0.14264 -0.061,-0.18351 -0.0408,-0.0613 -0.10204,-0.10177 -0.20407,-0.14263 -0.10186,-0.0204 -0.22437,-0.0613 -0.40778,-0.0817 -0.16312,-0.0204 -0.36701,-0.0204 -0.63207,-0.0204 -0.24476,0 -0.44865,0 -0.63206,0.0204 -0.16312,0.0204 -0.28554,0.0613 -0.3874,0.0817 -0.10203,0.0409 -0.18368,0.0814 -0.22428,0.14263 -0.0409,0.0409 -0.0613,0.10212 -0.0613,0.18351 v 12.17357 c 0,0.061 0.0204,0.12225 0.0613,0.16312 0.0406,0.0612 0.12225,0.10177 0.22428,0.14263 0.10186,0.0204 0.22428,0.0612 0.3874,0.0816 0.18341,0.0204 0.3873,0.0204 0.63206,0.0204 0.26506,0 0.46895,0 0.63207,-0.0204 0.18341,-0.0205 0.30592,-0.0613 0.40778,-0.0816 0.10203,-0.0409 0.16329,-0.0815 0.20407,-0.14263 0.0406,-0.0409 0.061,-0.10212 0.061,-0.16312 v -4.75103 h 4.83276 v 4.75103 c 0,0.061 0.0204,0.12225 0.0613,0.16312 0.0406,0.0612 0.12225,0.10177 0.20389,0.14263 0.10177,0.0204 0.24467,0.0612 0.40778,0.0816 0.16303,0.0204 0.38731,0.0204 0.63207,0.0204 0.26506,0 0.46895,0 0.63207,-0.0204 0.16328,-0.0205 0.30592,-0.0613 0.38756,-0.0816 0.10186,-0.0409 0.18351,-0.0815 0.22429,-0.14263 0.0409,-0.0409 0.061,-0.10212 0.061,-0.16312 z m 15.0691,3.50738 c 0,-0.69332 -0.12225,-1.28461 -0.36692,-1.79443 -0.26514,-0.50982 -0.61193,-0.93799 -1.04011,-1.26439 -0.42817,-0.34653 -0.93799,-0.61159 -1.50888,-0.7747 -0.57108,-0.18342 -1.20314,-0.26515 -1.8556,-0.26515 -0.44856,0 -0.85634,0.0409 -1.24374,0.10212 -0.38757,0.0814 -0.71371,0.18342 -0.99924,0.28528 -0.30593,0.10203 -0.55069,0.20389 -0.7341,0.3264 -0.20389,0.10177 -0.34653,0.2038 -0.42826,0.30566 -0.0817,0.0816 -0.14264,0.20415 -0.18342,0.36718 -0.0409,0.16311 -0.0612,0.3874 -0.0612,0.69332 0,0.22428 0,0.3874 0.0204,0.53003 0.0205,0.1429 0.0409,0.24467 0.0613,0.32632 0.0409,0.10212 0.0814,0.16311 0.12225,0.1835 0.0612,0.0408 0.10203,0.0613 0.1835,0.0613 0.0816,0 0.22454,-0.0613 0.38757,-0.16311 0.16303,-0.10203 0.38731,-0.22428 0.65246,-0.36718 0.26514,-0.12225 0.59128,-0.24467 0.95846,-0.36692 0.36692,-0.10203 0.79509,-0.16302 1.28452,-0.16302 0.30601,0 0.59129,0.0405 0.85635,0.12216 0.24476,0.0613 0.46904,0.1835 0.63206,0.30601 0.18377,0.14264 0.32641,0.32605 0.40805,0.52994 0.10186,0.2039 0.14264,0.42844 0.14264,0.67294 0,0.28553 -0.0817,0.55068 -0.24467,0.75457 -0.14264,0.20389 -0.36701,0.38731 -0.61168,0.5506 -0.26515,0.16311 -0.55068,0.32614 -0.87674,0.46903 -0.3264,0.14264 -0.65254,0.28528 -0.99933,0.44857 -0.34653,0.16311 -0.69332,0.34653 -1.01937,0.55042 -0.3264,0.1835 -0.61194,0.42826 -0.87708,0.71379 -0.24441,0.28554 -0.44857,0.61159 -0.61159,0.99925 -0.16312,0.38731 -0.24476,0.85635 -0.24476,1.38655 0,0.61168 0.12251,1.1621 0.34679,1.63114 0.22428,0.46895 0.53003,0.85661 0.9176,1.16227 0.3874,0.30601 0.85635,0.53029 1.38664,0.69332 0.50956,0.14264 1.08063,0.22428 1.67192,0.22428 0.30592,0 0.61158,-0.0204 0.9176,-0.0612 0.30592,-0.061 0.5912,-0.12225 0.85634,-0.2039 0.26515,-0.0815 0.48943,-0.16311 0.69332,-0.26514 0.2039,-0.10186 0.34679,-0.18351 0.40779,-0.2445 0.0816,-0.0613 0.12242,-0.12242 0.1429,-0.16329 0.0204,-0.061 0.0408,-0.12225 0.0612,-0.1835 0.0202,-0.0816 0.0202,-0.18342 0.0406,-0.30593 0,-0.10177 0,-0.24449 0,-0.42817 0,-0.1835 0,-0.34653 -0.0204,-0.48943 0,-0.12225 -0.0202,-0.22428 -0.0406,-0.32614 -0.0204,-0.0816 -0.0612,-0.14264 -0.10203,-0.18341 -0.0409,-0.0409 -0.10186,-0.0613 -0.1835,-0.0613 -0.0613,0 -0.18342,0.0408 -0.34679,0.14264 -0.14264,0.0816 -0.34653,0.18368 -0.57081,0.30592 -0.24467,0.10212 -0.50982,0.2039 -0.81557,0.28554 -0.30593,0.10186 -0.63224,0.14264 -0.99925,0.14264 -0.28553,0 -0.55059,-0.0408 -0.75448,-0.10177 -0.2039,-0.0613 -0.3874,-0.16329 -0.53004,-0.28554 -0.14289,-0.12251 -0.24475,-0.26515 -0.3264,-0.44865 -0.0612,-0.16303 -0.10177,-0.3467 -0.10177,-0.5506 0,-0.28536 0.0814,-0.53003 0.24441,-0.73418 0.1429,-0.20389 0.36727,-0.40778 0.61194,-0.57081 0.26514,-0.14264 0.57081,-0.30593 0.89721,-0.44856 0.32614,-0.14264 0.67284,-0.28554 1.01937,-0.44865 0.34679,-0.16303 0.69332,-0.34679 1.01972,-0.55069 0.32614,-0.2038 0.63207,-0.44856 0.89722,-0.71344 0.24467,-0.28554 0.46895,-0.61185 0.61159,-0.99925 0.16311,-0.38739 0.24475,-0.83596 0.24475,-1.34577 z m -3.38487,12.499711 c 0.0817,0.101772 0.16303,0.163027 0.24467,0.224281 0.10186,0.06099 0.18351,0.122248 0.30593,0.142638 0.12225,0.04086 0.26488,0.06125 0.42826,0.06125 0.16303,0.02039 0.36692,0.02039 0.61159,0.02039 0.30601,0 0.55068,-0.02039 0.71371,-0.06125 0.16311,-0.04078 0.28553,-0.08164 0.34653,-0.142638 0.0613,-0.08164 0.0817,-0.142898 0.0409,-0.224281 -0.0204,-0.08164 -0.0816,-0.163287 -0.1835,-0.244671 l -2.20212,-1.99832 c -0.0817,-0.0612 -0.1429,-0.10203 -0.20389,-0.1429 -0.0817,-0.0613 -0.16329,-0.0814 -0.26515,-0.12224 -0.10203,-0.0204 -0.22428,-0.0408 -0.34679,-0.0612 -0.14264,-0.0205 -0.32605,-0.0205 -0.52995,-0.0205 -0.22428,0 -0.40804,0.0205 -0.53029,0.0409 -0.14264,0.0204 -0.24467,0.0408 -0.30592,0.0816 -0.0409,0.0406 -0.061,0.10177 -0.061,0.16303 0.0201,0.08147 0.061,0.142637 0.14264,0.244757 z m 18.94314,-15.701171 c -0.0409,-0.16302 -0.10212,-0.28553 -0.16311,-0.38731 -0.0816,-0.10212 -0.18368,-0.16337 -0.32632,-0.22436 -0.12224,-0.0408 -0.30601,-0.0816 -0.53029,-0.10204 -0.22428,-0.0204 -0.48917,-0.0204 -0.83596,-0.0204 -0.36691,0 -0.67284,0 -0.9176,0.0204 -0.22428,0.0204 -0.40778,0.0613 -0.53003,0.10204 -0.14281,0.061 -0.22428,0.12224 -0.28554,0.22436 -0.0612,0.10178 -0.12242,0.22429 -0.14281,0.38731 l -2.05957,8.15638 h -0.0201 l -1.95771,-8.15638 c -0.0409,-0.16302 -0.0814,-0.28553 -0.14264,-0.38731 -0.0612,-0.0816 -0.14289,-0.16337 -0.28553,-0.22436 -0.12225,-0.0408 -0.30593,-0.0816 -0.53029,-0.10204 -0.22429,-0.0204 -0.50956,-0.0204 -0.87674,-0.0204 -0.3874,0 -0.69332,0 -0.9176,0.0204 -0.22428,0.0204 -0.40779,0.0613 -0.55042,0.10204 -0.12251,0.061 -0.22429,0.12224 -0.28554,0.22436 -0.0613,0.10178 -0.10186,0.22429 -0.14264,0.38731 l -2.91591,11.23533 c -0.0613,0.24475 -0.10204,0.42843 -0.10204,0.57107 -0.0204,0.14263 0.0204,0.24475 0.10204,0.30601 0.0814,0.0814 0.22428,0.12216 0.40778,0.14264 0.20389,0.0204 0.44856,0.0204 0.79509,0.0204 0.30601,0 0.55068,0 0.73419,-0.0204 0.18341,0 0.32631,-0.0205 0.40778,-0.0613 0.10203,-0.0409 0.16303,-0.0814 0.20389,-0.16302 0.0204,-0.0613 0.0612,-0.16312 0.0817,-0.28554 l 2.26337,-9.86916 v 0 l 2.34502,9.78769 c 0.0406,0.12225 0.061,0.2445 0.10186,0.30575 0.0408,0.0816 0.12242,0.1429 0.22428,0.18342 0.10204,0.0613 0.24467,0.0816 0.42818,0.10212 0.1835,0.0204 0.40778,0.0204 0.71371,0.0204 0.3264,0 0.57107,0 0.75457,-0.0204 0.20389,-0.0205 0.34653,-0.0409 0.44856,-0.0816 0.10186,-0.0409 0.18351,-0.10186 0.22437,-0.1835 0.0408,-0.0816 0.0814,-0.1835 0.10177,-0.32614 l 2.44714,-9.78769 h 0.0201 l 2.24325,9.82829 c 0.0204,0.10204 0.0406,0.2039 0.061,0.28554 0.0409,0.0613 0.10204,0.12251 0.2039,0.16303 0.0816,0.0613 0.22428,0.0816 0.38756,0.10212 0.18351,0.0204 0.42826,0.0204 0.73393,0.0204 0.30592,0 0.5302,0 0.69332,-0.0204 0.16329,-0.0205 0.26515,-0.0613 0.34679,-0.14264 0.0816,-0.0613 0.10177,-0.18376 0.10177,-0.3264 -0.0201,-0.14264 -0.0405,-0.32632 -0.10177,-0.57081 z m 12.90742,0.3264 c 0,-0.18376 0,-0.34679 -0.0204,-0.46904 -0.0204,-0.14289 -0.0613,-0.24467 -0.10204,-0.30592 -0.0204,-0.0816 -0.0612,-0.14264 -0.12225,-0.16311 -0.0409,-0.0408 -0.10203,-0.0612 -0.14289,-0.0612 h -7.13675 c -0.0408,0 -0.10203,0.0204 -0.1429,0.0612 -0.0405,0.0205 -0.0814,0.0815 -0.12216,0.16311 -0.0409,0.0613 -0.0613,0.16303 -0.0817,0.30592 -0.0204,0.12225 -0.0408,0.28528 -0.0408,0.46904 0,0.18342 0,0.34653 0.0204,0.48917 0.0204,0.12251 0.0409,0.22428 0.0817,0.30593 0.0409,0.0816 0.0816,0.14263 0.12224,0.16311 0.0613,0.0408 0.10204,0.0612 0.16329,0.0612 h 2.4061 v 8.38074 l -2.05957,-1.14188 c -0.16303,-0.0613 -0.28553,-0.12225 -0.38731,-0.14272 -0.0816,0 -0.16311,0.0205 -0.22428,0.061 -0.0613,0.0613 -0.0817,0.16338 -0.10212,0.30601 -0.0204,0.1429 -0.0406,0.32632 -0.0406,0.59146 0,0.14264 0,0.28528 0.0202,0.3874 0,0.10177 0.0204,0.18341 0.0408,0.26506 0.0205,0.061 0.0613,0.12225 0.10212,0.1835 0.0613,0.0409 0.12225,0.0814 0.20389,0.14264 l 2.75281,1.79442 c 0.0408,0.0204 0.0814,0.0408 0.12225,0.0612 0.0613,0.0205 0.12242,0.0205 0.20389,0.0409 0.0816,0 0.18341,0.0204 0.30592,0.0204 0.14264,0 0.30593,0 0.50982,0 0.24476,0 0.44865,0 0.61168,-0.0204 0.16302,0 0.26514,-0.0204 0.34653,-0.0409 0.0816,-0.0204 0.14289,-0.0612 0.16328,-0.10203 0.0204,-0.0406 0.0409,-0.0814 0.0409,-0.14264 v -10.64412 h 2.10009 c 0.0612,0 0.12242,-0.0204 0.18341,-0.0612 0.0409,-0.0205 0.0817,-0.0815 0.12251,-0.16311 0.0409,-0.0816 0.0613,-0.18342 0.0816,-0.30593 0.0204,-0.14264 0.0204,-0.30575 0.0204,-0.48917 z m 12.90723,-0.0204 c 0.0613,-0.24475 0.12251,-0.42826 0.1429,-0.57115 0.0202,-0.14264 0,-0.24467 -0.0816,-0.30567 -0.0816,-0.0816 -0.20389,-0.12251 -0.38731,-0.1429 -0.18376,-0.0204 -0.44865,-0.0204 -0.77496,-0.0204 -0.3264,0 -0.59129,0 -0.77497,0.0204 -0.20389,0 -0.34653,0.0204 -0.44865,0.0613 -0.10177,0.0204 -0.16302,0.0613 -0.2038,0.12225 -0.0406,0.0408 -0.0815,0.12242 -0.10186,0.20389 l -0.83622,2.58969 h -4.87328 l -0.79544,-2.50805 c -0.0405,-0.10186 -0.061,-0.1835 -0.12216,-0.24476 -0.0409,-0.0613 -0.10212,-0.10177 -0.20389,-0.14263 -0.0816,-0.0408 -0.22437,-0.0613 -0.40779,-0.0817 -0.16329,-0.0204 -0.40778,-0.0204 -0.69332,-0.0204 -0.30592,0 -0.53029,0 -0.71371,0.0204 -0.16311,0.0204 -0.28553,0.0817 -0.34679,0.16303 -0.0814,0.0613 -0.10186,0.18376 -0.0814,0.3264 0.0204,0.12225 0.0814,0.30593 0.14264,0.55068 l 3.97633,11.43922 c 0.0406,0.10203 0.0815,0.20389 0.14263,0.26515 0.0409,0.0816 0.14273,0.12216 0.24476,0.16302 0.12225,0.0408 0.28554,0.0613 0.48943,0.0613 0.20389,0.0204 0.46904,0.0204 0.81557,0.0204 0.38731,0 0.71371,0 0.93799,-0.0204 0.22428,0 0.40778,-0.0205 0.55068,-0.0613 0.12216,-0.0409 0.20389,-0.10186 0.26489,-0.16302 0.0612,-0.0817 0.10203,-0.18351 0.14289,-0.30602 z m -5.91339,9.46129 h -0.0204 l -1.79442,-5.48522 h 3.60924 z m 16.27198,1.36625 c 0,-0.1835 0,-0.34679 -0.0204,-0.48942 -0.0204,-0.14264 -0.0409,-0.24476 -0.0816,-0.32641 -0.0202,-0.0814 -0.061,-0.14263 -0.12225,-0.18341 -0.0409,-0.0409 -0.10203,-0.061 -0.16303,-0.061 h -3.22184 v -10.37923 c 0,-0.0814 -0.0205,-0.14264 -0.0613,-0.18351 -0.0409,-0.0613 -0.12225,-0.10177 -0.22429,-0.14263 -0.0815,-0.0204 -0.22436,-0.0613 -0.38739,-0.0817 -0.1835,-0.0204 -0.38731,-0.0204 -0.63207,-0.0204 -0.26514,0 -0.46903,0 -0.63232,0.0204 -0.18342,0.0204 -0.30567,0.0613 -0.40779,0.0817 -0.10177,0.0409 -0.18341,0.0814 -0.22428,0.14263 -0.0408,0.0409 -0.061,0.10212 -0.061,0.18351 v 10.37923 h -3.22184 c -0.0613,0 -0.12243,0.0201 -0.16329,0.061 -0.0406,0.0408 -0.0814,0.10203 -0.12225,0.18341 -0.0408,0.0817 -0.0613,0.18377 -0.0816,0.32641 -0.0204,0.14263 -0.0204,0.30592 -0.0204,0.48942 0,0.2039 0,0.36692 0.0204,0.50982 0.0204,0.14264 0.0409,0.26489 0.0816,0.34653 0.0409,0.0816 0.0816,0.14264 0.12225,0.16303 0.0409,0.0409 0.10203,0.0613 0.16329,0.0613 h 9.07406 c 0.061,0 0.12216,-0.0204 0.16303,-0.0613 0.0612,-0.0204 0.10203,-0.0814 0.12225,-0.16303 0.0408,-0.0816 0.0612,-0.20389 0.0816,-0.34653 0.0204,-0.1429 0.0204,-0.30592 0.0204,-0.50982 z m 12.09167,-10.82754 c 0.0613,-0.24475 0.12251,-0.42826 0.1429,-0.57115 0.0202,-0.14264 0,-0.24467 -0.0816,-0.30567 -0.0816,-0.0816 -0.2039,-0.12251 -0.38731,-0.1429 -0.18377,-0.0204 -0.44865,-0.0204 -0.77497,-0.0204 -0.3264,0 -0.59128,0 -0.77496,0.0204 -0.20389,0 -0.34653,0.0204 -0.44865,0.0613 -0.10177,0.0204 -0.16303,0.0613 -0.20389,0.12225 -0.0405,0.0408 -0.0814,0.12242 -0.10177,0.20389 l -0.83622,2.58969 h -4.87328 l -0.79544,-2.50805 c -0.0405,-0.10186 -0.061,-0.1835 -0.12216,-0.24476 -0.0409,-0.0613 -0.10212,-0.10177 -0.2039,-0.14263 -0.0816,-0.0408 -0.22437,-0.0613 -0.40778,-0.0817 -0.16329,-0.0204 -0.40779,-0.0204 -0.69332,-0.0204 -0.30593,0 -0.53029,0 -0.71371,0.0204 -0.16311,0.0204 -0.28554,0.0817 -0.34679,0.16303 -0.0814,0.0613 -0.10186,0.18376 -0.0814,0.3264 0.0204,0.12225 0.0814,0.30593 0.14263,0.55068 l 3.97633,11.43922 c 0.0406,0.10203 0.0815,0.20389 0.14264,0.26515 0.0409,0.0816 0.14273,0.12216 0.24476,0.16302 0.12225,0.0408 0.28553,0.0613 0.48943,0.0613 0.20389,0.0204 0.46895,0.0204 0.81557,0.0204 0.3873,0 0.7137,0 0.93799,-0.0204 0.22428,0 0.40778,-0.0205 0.55068,-0.0613 0.12216,-0.0409 0.20389,-0.10186 0.26488,-0.16302 0.0612,-0.0817 0.10204,-0.18351 0.14282,-0.30602 z m -5.91339,9.46129 h -0.0204 l -1.79442,-5.48522 h 3.60923 z" />
      <path
         inkscape:connector-curvature="0"
         id="path917"
         style="fill:#ffffff;fill-opacity:1;fill-rule:evenodd;stroke:none;stroke-width:1.44280183"
         d="m -682.2809,-30.22748 c 34.89462,0 63.18235,-28.287732 63.18235,-63.18209 0,-22.18312 -11.43436,-41.69316 -28.7284,-52.96588 -4.64978,9.3583 -10.14142,22.15683 -3.55414,29.42588 3.68671,4.06787 13.09421,12.83931 12.96702,33.561602 -0.12737,20.721512 -14.36546,38.392452 -40.93521,38.011217 -26.56948,-0.381669 -36.73988,-14.238264 -40.04536,-22.501621 -3.30523,-8.263184 -1.65248,-18.687624 -1.65248,-20.976335 0,-2.288016 0.88983,-5.466304 -1.01695,-9.534169 -1.90704,-4.068384 -6.1021,-9.407494 -5.97517,-11.823144 0.12711,-2.41538 2.92399,-3.17828 4.44954,-3.68663 1.52563,-0.5086 3.81382,-1.52537 3.30522,-3.55952 -0.50834,-2.03423 -2.28819,-3.68689 -0.63571,-5.08533 1.65291,-1.39818 2.41564,-2.16108 2.41564,-2.16108 0,0 -1.20782,-0.38124 -1.08071,-1.90678 0.12719,-1.52581 1.27124,-1.65274 2.09766,-2.54258 0.82632,-0.89001 2.16108,-1.71616 1.27124,-3.75031 -0.88983,-2.03398 -1.52528,-6.1028 0.69922,-8.64512 2.22477,-2.54275 9.59838,-3.49627 13.47562,-3.30565 3.87725,0.19105 7.56414,1.14379 9.47092,0 6.13698,-3.68151 5.90385,-5.80225 6.55683,-11.62446 -33.15633,1.93264 -59.44965,29.42884 -59.44965,63.06991 0,34.894358 28.2879,63.18209 63.18252,63.18209 z m 18.43428,-110.91046 c 3.40361,0 6.16257,-2.7587 6.16257,-6.16249 0,-3.40335 -2.75896,-6.16231 -6.16257,-6.16231 -3.40335,0 -6.16232,2.75896 -6.16232,6.16231 0,3.40379 2.75897,6.16249 6.16232,6.16249 z m -39.19371,59.802081 c -0.88341,-3.71344 -4.61013,-6.00779 -8.32357,-5.124373 -3.71352,0.883417 -6.00787,4.610131 -5.12446,8.323657 0.018,0.07548 6.02211,26.435437 34.11844,26.435177 v 0.02707 c 13.52976,0 22.09931,-3.996806 27.57914,-10.022556 5.49407,-6.041106 7.45812,-13.671704 8.08975,-21.249376 1.17381,-14.088251 -5.18962,-22.37547 -10.59172,-29.40966 -2.61875,-3.4102 -4.88248,-6.35831 -4.62497,-8.3096 0.63702,-4.82261 1.06866,-9.56957 1.06987,-9.5831 0.34436,-3.8035 -2.45963,-7.16625 -6.26313,-7.51052 -3.8035,-0.34436 -7.16624,2.45963 -7.51052,6.26313 -8.6e-4,0.0123 -0.39381,4.33492 -1.01529,9.04101 -1.00862,7.63745 2.8603,12.67584 7.33621,18.50438 3.90458,5.084377 8.50412,11.074033 7.77176,19.865688 -0.41394,4.96872 -1.53518,9.789164 -4.51087,13.060982 -2.98941,3.287174 -8.27516,5.467692 -17.33023,5.467692 v 0.02707 c -17.07228,0 -20.65956,-15.761642 -20.67041,-15.806671" />
    </g>
    <text
       xml:space="preserve"
       style="font-style:normal;font-variant:normal;font-weight:bold;font-stretch:normal;font-size:6.96815px;line-height:1.25;font-family:sans-serif;-inkscape-font-specification:'sans-serif Bold';letter-spacing:0px;word-spacing:0px;fill:#ffffff;fill-opacity:1;stroke:none;stroke-width:0.264583"
       x="167.81496"
       y="224.25847"
       id="text950"><tspan
         sodipodi:role="line"
         id="tspan948"
         x="167.81496"
         y="224.25847"
         style="font-style:normal;font-variant:normal;font-weight:bold;font-stretch:normal;font-size:6.96815px;font-family:sans-serif;-inkscape-font-specification:'sans-serif Bold';fill:#ffffff;fill-opacity:1;stroke-width:0.264583">http://ciekawi.icm.edu.pl/lpes/</tspan></text>
    <text
       xml:space="preserve"
       style="font-style:normal;font-variant:normal;font-weight:normal;font-stretch:normal;font-size:5.64444px;line-height:1.25;font-family:sans-serif;-inkscape-font-specification:sans-serif;letter-spacing:0px;word-spacing:0px;fill:#e7e7e7;fill-opacity:1;stroke:none;stroke-width:0.264583"
       x="6.3499994"
       y="280.81134"
       id="text973"><tspan
         sodipodi:role="line"
         id="tspan971"
         x="6.3499994"
         y="280.81134"
         style="fill:#e7e7e7;fill-opacity:1;stroke-width:0.264583">© 2021-2022, Robert Paciorek &lt;rrp@opcode.eu.org&gt;</tspan><tspan
         sodipodi:role="line"
         x="6.3499994"
         y="287.86688"
         style="fill:#e7e7e7;fill-opacity:1;stroke-width:0.264583"
         id="tspan975">© 2021-2022, Matematyka dla Ciekawych Świata</tspan></text>
    <text
       xml:space="preserve"
       style="font-style:normal;font-variant:normal;font-weight:normal;font-stretch:normal;font-size:6.96815px;line-height:0.8;font-family:sans-serif;-inkscape-font-specification:sans-serif;text-align:end;letter-spacing:0px;word-spacing:0px;text-anchor:end;fill:#ffffff;fill-opacity:1;stroke:none;stroke-width:0.264583"
       x="151.77298"
       y="221.71895"
       id="text1000-3"><tspan
         sodipodi:role="line"
         x="151.77298"
         y="221.71895"
         style="font-style:normal;font-variant:normal;font-weight:normal;font-stretch:normal;font-size:6.96815px;line-height:0.8;font-family:sans-serif;-inkscape-font-specification:sans-serif;text-align:end;text-anchor:end;fill:#ffffff;fill-opacity:1;stroke-width:0.264583"
         id="tspan1000">strona www kursu</tspan><tspan
         sodipodi:role="line"
         x="151.77298"
         y="227.29347"
         style="font-style:normal;font-variant:normal;font-weight:normal;font-stretch:normal;font-size:4.58611px;line-height:0.8;font-family:sans-serif;-inkscape-font-specification:sans-serif;text-align:end;text-anchor:end;fill:#ffffff;fill-opacity:1;stroke-width:0.264583"
         id="tspan1005">(skrypty, inne wykłady, zadania, ...)</tspan></text>
  </g>
</svg>
