<?xml version="1.0" encoding="UTF-8" standalone="no"?>
<svg
   xmlns:dc="http://purl.org/dc/elements/1.1/"
   xmlns:cc="http://creativecommons.org/ns#"
   xmlns:rdf="http://www.w3.org/1999/02/22-rdf-syntax-ns#"
   xmlns:svg="http://www.w3.org/2000/svg"
   xmlns="http://www.w3.org/2000/svg"
   xmlns:sodipodi="http://sodipodi.sourceforge.net/DTD/sodipodi-0.dtd"
   xmlns:inkscape="http://www.inkscape.org/namespaces/inkscape"
   style="shape-rendering:geometricPrecision;text-rendering:geometricPrecision;image-rendering:optimizeQuality"
   fill-rule="evenodd"
   xml:space="preserve"
   version="1.1"
   clip-rule="evenodd"
   viewBox="0 0 9427 10696"
   id="svg243"
   sodipodi:docname="telephone-poles2__180965.svg"
   inkscape:version="0.92.4 (5da689c313, 2019-01-14)"><sodipodi:namedview
   pagecolor="#ffffff"
   bordercolor="#666666"
   borderopacity="1"
   objecttolerance="10"
   gridtolerance="10"
   guidetolerance="10"
   inkscape:pageopacity="0"
   inkscape:pageshadow="2"
   inkscape:window-width="1920"
   inkscape:window-height="1009"
   id="namedview245"
   showgrid="false"
   showguides="false"
   inkscape:zoom="0.044128646"
   inkscape:cx="4688.9892"
   inkscape:cy="4445.6647"
   inkscape:window-x="0"
   inkscape:window-y="0"
   inkscape:window-maximized="1"
   inkscape:current-layer="Layer_x0020_1" />
 <defs
   id="defs4">
  <style
   type="text/css"
   id="style2">
    .fil3 {fill:black}
    .fil4 {fill:#1A1A1A}
    .fil5 {fill:#4D4D4D}
    .fil7 {fill:#666666}
    .fil8 {fill:gray}
    .fil2 {fill:#999999}
    .fil6 {fill:#B3B3B3}
    .fil1 {fill:#CCCCCC}
    .fil0 {fill:#FAFAFA}
    .fil10 {fill:#333333;fill-rule:nonzero}
    .fil9 {fill:#4D4D4D;fill-rule:nonzero}
  </style>
 </defs>
 <g
   id="Layer_x0020_1">
  
  
  
  <g
   id="_784828912">
   
   
   
   
   
   
   <rect
   width="2605"
   transform="matrix(-.18605 .18228 .18228 .18605 2887.8 5613.4)"
   class="fil5"
   height="217"
   id="rect24" />
   <rect
   width="2605"
   transform="matrix(.18605 .18228 -.18228 .18605 1997.5 5613.4)"
   class="fil5"
   height="217"
   id="rect26" />
   <polygon
   points="2557 5323 2328 5323 2328 10696 2557 10696"
   class="fil1"
   id="polygon28" />
   
   <path
   class="fil6"
   d="m2562 5199h-36v1c0 10-8 18-18 18s-18-8-18-18v-1h-36c-16 0-29 13-29 29v38h165v-38c0-16-13-29-29-29z"
   id="path32" />
   <path
   class="fil6"
   d="m3351 5439h-36v1c0 10-8 18-18 18s-18-8-18-18v-1h-36c-16 0-29 13-29 29v38h165v-38c0-16-13-29-29-29z"
   id="path34" />
   <path
   class="fil6"
   d="m1534 5439h36v1c0 10 8 18 18 18s18-8 18-18v-1h36c16 0 29 13 29 29v38h-165v-38c0-16 13-29 29-29z"
   id="path36" />
   
   <polygon
   points="2509 5266 2534 5266 2534 5324 2509 5324 2483 5324 2483 5266"
   class="fil4"
   id="polygon40" />
   <polygon
   points="3297 5506 3323 5506 3323 5563 3297 5563 3272 5563 3272 5506"
   class="fil4"
   id="polygon42" />
   <polygon
   points="1588 5506 1562 5506 1562 5563 1588 5563 1614 5563 1614 5506"
   class="fil4"
   id="polygon44" />
   
   <path
   class="fil7"
   d="m2455 5199h36c0-9 8-17 18-17 9 0 17 7 18 17h36c16 0 29-13 29-29h-165c0 16 13 29 29 29z"
   id="path48" />
   <path
   class="fil7"
   d="m3244 5439h36c0-9 8-17 18-17 9 0 17 7 18 17h36c16 0 29-13 29-29h-165c0 16 13 29 29 29z"
   id="path50" />
   <path
   class="fil7"
   d="m1641 5439h-36c0-9-8-17-18-17-9 0-17 7-18 17h-36c-16 0-29-13-29-29h165c0 16-13 29-29 29z"
   id="path52" />
   
   
   
   
   
   
   
   
   
   
   
   
   
   
   
   
   
   
   
   <rect
   y="5563"
   x="1379"
   width="2127"
   class="fil6"
   height="111"
   id="rect92" />
   
   
   
   
   
   
   
   
   
   
   
   
   
   
   
  </g>
  <g
   id="_663430368">
   <path
   class="fil2"
   d="m5997 3174c13-40-6-66-47-54l3-13c41-7 67 22 57 65-13 57 25 38 47 63 9 10 37 32 11 56-17 16-54 34-93 53-13 6-27 13-41 20-25 13-49 26-69 41-16 11-30 23-42 37v-15c11-11 23-21 36-31 21-15 45-29 71-42 13-7 27-13 41-20 38-18 74-36 90-51 38-58-86-40-63-110z"
   id="path125" />
   <path
   class="fil2"
   d="m5752 2840c0-48 24-62 54-25l1-15c-32-33-62-19-65 30-5 65-31 23-56 35-10 5-39 10-25 50 10 26 35 67 62 109 9 15 19 30 28 45 17 28 33 56 46 83s23 55 31 84c7 28 10 57 12 85 1 30-1 57-5 78-4 20-11 33-16 44-6 12-10 22-10 34s6 25 14 39c8 13 17 27 27 41l6-7c-10-13-19-27-26-39s-11-22-12-31c0-9 4-17 9-28 6-12 12-26 17-47 5-22 7-50 5-81-1-29-5-59-12-88-7-30-18-59-32-88-13-28-29-56-47-85-9-15-19-30-28-45-27-42-52-81-61-105-15-80 82 13 83-71z"
   id="path127" />
   <path
   class="fil2"
   d="m5629 2373c43 0 78-65 78-145 0-66 29-120 65-120v-12c-43 0-78 52-78 132 0 66-29 120-65 120v25z"
   id="path129" />
   <rect
   y="2856"
   x="6137"
   width="44"
   class="fil3"
   height="17"
   id="rect131" />
   <rect
   y="2725"
   x="5657"
   width="28"
   class="fil3"
   height="11"
   id="rect133" />
   <rect
   y="2656"
   x="5963"
   width="29"
   class="fil4"
   height="107"
   id="rect135" />
   <rect
   width="2605"
   transform="matrix(.12410 .12159 -.12159 .12410 5544.2 2354.6)"
   class="fil5"
   height="217"
   id="rect137" />
   <rect
   width="2605"
   transform="matrix(-.12410 .12159 .12159 .12410 6138.1 2354.6)"
   class="fil5"
   height="217"
   id="rect139" />
   <polygon
   points="5765 2161 5918 2161 5918 5745 5765 5745"
   class="fil1"
   id="polygon141" />
   <path
   class="fil6"
   d="m5806 2238h24c0 6 5 12 12 12 6 0 12-5 12-12h24c11 0 19 9 19 19v25h-110v-25c0-11 9-19 19-19z"
   id="path143" />
   <path
   class="fil6"
   d="m5762 2079h24c0 6 5 12 12 12 6 0 12-5 12-12h24c11 0 19 9 19 19v25h-110v-25c0-11 9-19 19-19z"
   id="path145" />
   <path
   class="fil6"
   d="m5235 2238h24c0 6 5 12 12 12 6 0 12-5 12-12h24c11 0 19 9 19 19v25h-110v-25c0-11 9-19 19-19z"
   id="path147" />
   <path
   class="fil6"
   d="m6447 2238h-24c0 6-5 12-12 12-6 0-12-5-12-12h-24c-11 0-19 9-19 19v25h110v-25c0-11-9-19-19-19z"
   id="path149" />
   <polygon
   points="5841 2283 5824 2283 5824 2321 5841 2321 5858 2321 5858 2283"
   class="fil4"
   id="polygon151" />
   <polygon
   points="5797 2123 5780 2123 5780 2161 5797 2161 5815 2161 5815 2123"
   class="fil4"
   id="polygon153" />
   <polygon
   points="5271 2283 5254 2283 5254 2321 5271 2321 5288 2321 5288 2283"
   class="fil4"
   id="polygon155" />
   <polygon
   points="6411 2283 6429 2283 6429 2321 6411 2321 6394 2321 6394 2283"
   class="fil4"
   id="polygon157" />
   <path
   class="fil7"
   d="m5877 2238h-24c0-6-5-11-12-11-6 0-11 5-12 11h-24c-11 0-19-9-19-19h110c0 11-9 19-19 19z"
   id="path159" />
   <path
   class="fil7"
   d="m5833 2079h-24c0-6-5-11-12-11-6 0-11 5-12 11h-24c-11 0-19-9-19-19h110c0 11-9 19-19 19z"
   id="path161" />
   <path
   class="fil7"
   d="m5307 2238h-24c0-6-5-11-12-11-6 0-11 5-12 11h-24c-11 0-19-9-19-19h110c0 11-9 19-19 19z"
   id="path163" />
   <path
   class="fil7"
   d="m6376 2238h24c0-6 5-11 12-11 6 0 11 5 12 11h24c11 0 19-9 19-19h-110c0 11 9 19 19 19z"
   id="path165" />
   <path
   class="fil2"
   d="m6018 2396c-41 0-75-34-75-75 0-34-28-62-62-62v-13c41 0 75 34 75 75 0 34 28 62 62 62v13z"
   id="path167" />
   <path
   class="fil2"
   d="m5482 2385c-41 0-87-29-101-65-12-30-49-54-84-54l-4-11c41 0 87 29 101 65 12 30 49 54 84 54l4 11z"
   id="path169" />
   <path
   class="fil2"
   d="m6239 2416c41-8 78-46 85-86 5-34 38-66 73-72l2-13c-42 6-82 45-89 87-5 34-38 66-73 72-3 2-11 6-14 9-4 3-9 8-17 14l-6 6c-15 13-37 32-61 51-8 6-15 11-23 17-21 16-42 31-57 47-15 15-24 30-33 44l-12 18c-12 17-27 30-41 43l4 5 4 5c15-13 30-26 43-45 4-5 8-12 12-18 8-13 18-28 31-42 15-15 35-30 56-45 8-6 15-11 23-17 24-19 46-38 62-51l6-6c8-7 13-11 16-14 4-3 6-5 8-7z"
   id="path171" />
   <path
   class="fil2"
   d="m5620 2446c-26-5-50-29-54-54-3-22-24-42-47-45l-1-8c27 4 52 29 56 55 3 22 24 42 47 45 2 1 7 4 9 6 3 2 6 5 11 9l4 4c10 8 23 20 39 32 5 4 10 7 14 11 13 10 26 19 36 30 9 10 15 19 21 28 2 4 5 8 7 11 8 11 17 19 26 27l-3 3-3 3c-9-8-19-17-27-28-2-3-5-7-8-12-5-8-11-18-20-27-9-10-22-19-35-29-5-4-10-7-14-11-15-12-29-24-39-33 0 0 1 0-4-4s-8-7-10-9-4-3-5-4z"
   id="path173" />
   <path
   class="fil2"
   d="m5679 2386c41 0 75-27 75-60 0-27 28-49 62-49v-10c-41 0-75 27-75 60 0 27-28 49-62 49v10z"
   id="path175" />
   <path
   class="fil2"
   d="m5145 2383c41 0 67-26 57-58-8-27 13-48 47-48l-3-10c-41 0-67 26-57 58 8 27-13 48-47 48l3 10z"
   id="path177" />
   <path
   class="fil2"
   d="m6481 2333c13-40-6-66-47-54l3-13c41-7 67 22 57 65-13 57 25 38 47 63 9 10 37 32 11 56-17 16-54 34-93 53-13 6-27 13-41 20-25 13-49 26-69 41-21 15-39 31-54 51-15 19-26 41-35 64-9 24-15 48-17 68-1 19 1 34 4 46 2 14 4 24 1 34-4 10-13 18-25 24-11 6-25 12-38 17l-4-10c13-5 27-11 37-17s17-12 20-19 1-16-1-28c-2-13-5-29-4-49 1-21 7-46 17-71 9-23 21-46 37-66 16-21 35-38 56-54 21-15 45-29 71-42 13-7 27-13 41-20 38-18 74-36 90-51 38-58-86-40-63-110z"
   id="path179" />
   <path
   class="fil2"
   d="m5467 2394c-8-26 4-42 30-34l-2-8c-26-5-42 14-36 41 8 36-16 24-29 40-5 6-23 20-7 36 11 10 34 21 59 33 8 4 17 8 26 13 16 8 31 16 44 26 13 9 25 20 34 33 9 12 17 26 22 40 6 15 10 30 10 43 1 12-1 21-2 29-2 9-3 15 0 22 2 6 8 11 16 15 7 4 16 7 24 11l3-6c-8-3-17-7-24-11-6-4-11-7-13-12-2-4-1-10 1-18 1-8 3-18 2-31s-5-29-11-45c-6-15-14-29-23-42-10-13-22-24-36-34s-29-18-45-26c-8-4-17-9-26-13-24-12-47-23-57-32-24-36 54-25 40-69z"
   id="path181" />
   <rect
   rx="6"
   ry="6"
   height="18"
   width="67"
   y="2663"
   x="5944"
   class="fil8"
   id="rect183" />
   <rect
   rx="4"
   ry="4"
   height="12"
   width="43"
   y="2602"
   x="5764"
   class="fil8"
   id="rect185" />
   <rect
   rx="6"
   ry="6"
   height="18"
   width="67"
   y="2685"
   x="5944"
   class="fil8"
   id="rect187" />
   <rect
   rx="4"
   ry="4"
   height="12"
   width="43"
   y="2616"
   x="5764"
   class="fil8"
   id="rect189" />
   <rect
   rx="6"
   ry="6"
   height="18"
   width="67"
   y="2705"
   x="5944"
   class="fil8"
   id="rect191" />
   <rect
   rx="4"
   ry="4"
   height="12"
   width="43"
   y="2629"
   x="5764"
   class="fil8"
   id="rect193" />
   <rect
   rx="6"
   ry="6"
   height="18"
   width="67"
   y="2727"
   x="5944"
   class="fil8"
   id="rect195" />
   <rect
   rx="4"
   ry="4"
   height="12"
   width="43"
   y="2643"
   x="5764"
   class="fil8"
   id="rect197" />
   
   <rect
   y="2756"
   x="5897"
   width="249"
   class="fil7"
   height="474"
   id="rect201" />
   <rect
   y="2661"
   x="5679"
   width="158"
   class="fil2"
   height="300"
   id="rect203" />
   <rect
   y="2321"
   x="5132"
   width="1419"
   class="fil6"
   height="74"
   id="rect205" />
   <rect
   rx="3"
   ry="3"
   height="41"
   width="6"
   y="2844"
   x="6156"
   class="fil5"
   id="rect207" />
   <rect
   rx="2"
   ry="2"
   height="26"
   width="4"
   y="2717"
   x="5668"
   class="fil5"
   id="rect209" />
   <rect
   rx="3"
   ry="3"
   height="41"
   width="6"
   y="2844"
   x="6172"
   class="fil5"
   id="rect211" />
   <rect
   rx="2"
   ry="2"
   height="26"
   width="4"
   y="2717"
   x="5658"
   class="fil5"
   id="rect213" />
   <rect
   rx="3"
   ry="3"
   height="41"
   width="6"
   y="2844"
   x="6149"
   class="fil5"
   id="rect215" />
   <rect
   rx="2"
   ry="2"
   height="26"
   width="4"
   y="2717"
   x="5673"
   class="fil5"
   id="rect217" />
   <rect
   rx="3"
   ry="3"
   height="41"
   width="6"
   y="2844"
   x="6141"
   class="fil5"
   id="rect219" />
   <rect
   rx="2"
   ry="2"
   height="26"
   width="4"
   y="2717"
   x="5678"
   class="fil5"
   id="rect221" />
   <rect
   rx="3"
   ry="3"
   height="41"
   width="6"
   y="2844"
   x="6164"
   class="fil5"
   id="rect223" />
   <rect
   rx="2"
   ry="2"
   height="26"
   width="4"
   y="2717"
   x="5663"
   class="fil5"
   id="rect225" />
   <rect
   y="2840"
   x="6027"
   width="69"
   class="fil2"
   height="33"
   id="rect227" />
   <rect
   y="2714"
   x="5711"
   width="44"
   class="fil6"
   height="21"
   id="rect229" />
   <rect
   y="2887"
   x="6032"
   width="61"
   class="fil2"
   height="29"
   id="rect231" />
   <rect
   y="2744"
   x="5713"
   width="39"
   class="fil6"
   height="18"
   id="rect233" />
   <rect
   y="2598"
   x="5777"
   width="18"
   class="fil4"
   height="68"
   id="rect235" />
  </g>
  <path
   class="fil10"
   d="m6438 2256c-155 482-353 1063-863 1604-501 532-1359 987-2209 1572h-2c-135 283-772 1048-1536 1808-586 582-1247 1164-1819 1530l-7-10c571-365 1232-946 1817-1528 762-758 1395-1517 1531-1799h-2l4-2c852-587 1714-1043 2216-1576 509-540 706-1119 861-1600l10 3zm2988-2149v13c-22 32-44 65-66 98-395 589-1719 1328-2919 2026l-4-6c1199-697 2522-1436 2916-2024 24-36 48-72 72-107zm-4136 2122c1595-682 2968-1543 3295-2060 39-61 75-118 109-169l6 4c-34 51-70 107-109 169-328 517-1701 1380-3299 2062l-3-7zm-5285 4782c231-230 1530-1381 1605-1571l2-3c937-490 1499-889 2149-1445s1157-1144 1521-1765l9 5c-364 622-872 1211-1523 1768-650 556-1213 955-2149 1445-77 194-1306 1299-1614 1583v-17z"
   id="path238" />
 <path
   inkscape:connector-curvature="0"
   style="fill:#333333;fill-rule:nonzero;image-rendering:optimizeQuality;shape-rendering:geometricPrecision;text-rendering:geometricPrecision"
   class="fil10"
   d="m 5805.0429,2077.1716 c -155,482 -353,1063 -863,1603.9999 C 4441.0429,4213.1715 3390,4615 2540,5200 h -2 C 2403,5483 1766,6248 1002,7008 416,7590 541.98311,7454.3675 8.2235773,7877.0201 l -7,-10 C 532.5668,7445.3675 408,7582 993,7000 1755,6242 2388,5483 2524,5201 h -2 l 4,-2 c 852,-587 1907.0429,-989.8285 2409.0429,-1522.8285 509,-539.9999 706,-1118.9999 861,-1599.9999 l 10,3 z M 9064.9718,0.2784746 V 13.278475 c -22,32 4.0713,-7.1069149 -17.9287,25.893085 -395,589 -1896.3379,1635.70104 -3239.0002,2026.00004 l -4,-6 C 7152.7868,1668.6992 8646.0431,623.17156 9040.0431,35.17156 c 24,-35.99999989 -0.071,0.106915 23.9287,-34.8930854 z"
   id="path238-3"
   sodipodi:nodetypes="ccccccccccccccccccccccc" /></g>
<metadata
   id="metadata241"><rdf:RDF><cc:Work><dc:format>image/svg+xml</dc:format><dc:type
         rdf:resource="http://purl.org/dc/dcmitype/StillImage" /><cc:license
         rdf:resource="http://creativecommons.org/licenses/publicdomain/" /><dc:publisher><cc:Agent
           rdf:about="http://openclipart.org/"><dc:title>Openclipart</dc:title></cc:Agent></dc:publisher><dc:title>Two Telephone - Utility Poles With Wires</dc:title><dc:date>2013-07-18T13:06:15</dc:date><dc:description>Two telephone poles with perspective.</dc:description><dc:source>https://openclipart.org/detail/180965/two-telephone---utility-poles-with-wires-by-barrettward-180965</dc:source><dc:creator><cc:Agent><dc:title>barrettward</dc:title></cc:Agent></dc:creator><dc:subject><rdf:Bag><rdf:li>cable</rdf:li><rdf:li>electric</rdf:li><rdf:li>pole</rdf:li><rdf:li>poles</rdf:li><rdf:li>telephone</rdf:li><rdf:li>utility</rdf:li><rdf:li>wires</rdf:li></rdf:Bag></dc:subject></cc:Work><cc:License
       rdf:about="http://creativecommons.org/licenses/publicdomain/"><cc:permits
         rdf:resource="http://creativecommons.org/ns#Reproduction" /><cc:permits
         rdf:resource="http://creativecommons.org/ns#Distribution" /><cc:permits
         rdf:resource="http://creativecommons.org/ns#DerivativeWorks" /></cc:License></rdf:RDF></metadata></svg>